<svg preserveAspectRatio="none" width="100%" height="100%" overflow="visible" style="display: block;" viewBox="0 0 112 34" fill="none" xmlns="http://www.w3.org/2000/svg">
<g id="Docker_Logo 2" clip-path="url(#clip0_0_365)">
<path id="Vector" d="M31.7638 14.6968C30.9721 14.1565 28.8922 13.9257 27.3802 14.339C27.2991 12.8119 26.5217 11.5247 25.101 10.4016L24.5753 10.0438L24.2248 10.5808C23.5358 11.6411 23.2453 13.0543 23.3481 14.339C23.4292 15.1306 23.7005 16.02 24.2248 16.6655C22.2567 17.8232 20.4423 17.5603 12.4077 17.5603H0.00298397C-0.0330261 19.4 0.258415 22.9382 2.47759 25.8188C2.72294 26.1371 2.99134 26.4448 3.28326 26.7413C5.0876 28.5732 7.8138 29.9168 11.8901 29.9202C18.1093 29.9261 23.4374 26.5173 26.6787 18.2764C27.7451 18.294 30.5606 18.4702 31.9386 15.7708C31.9722 15.7255 32.2891 15.0551 32.2891 15.0551L31.7638 14.6973V14.6968ZM8.09852 13.0149H4.61035V16.5516H8.09852V13.0149ZM12.6046 13.0149H9.11641V16.5516H12.6046V13.0149ZM17.1111 13.0149H13.6229V16.5516H17.1111V13.0149ZM21.6177 13.0149H18.1295V16.5516H21.6177V13.0149ZM3.59199 13.0149H0.103812V16.5516H3.59199V13.0149ZM8.09852 8.54779H4.61035V12.0845H8.09852V8.54779ZM12.6046 8.54779H9.11641V12.0845H12.6046V8.54779ZM17.1111 8.54779H13.6229V12.0845H17.1111V8.54779ZM17.1111 4.08023H13.6229V7.61699H17.1111V4.08023Z" fill="var(--fill-0, #E0DDFE)"/>
<g id="Group">
<path id="Vector_2" d="M111.844 25.6365C111.844 26.5585 111.13 27.2824 110.202 27.2824C109.273 27.2824 108.549 26.5585 108.549 25.6365C108.549 24.7144 109.282 24.0105 110.202 24.0105C111.121 24.0105 111.844 24.7344 111.844 25.6365ZM108.96 25.6365C108.96 26.3604 109.488 26.9353 110.212 26.9353C110.935 26.9353 111.434 26.3604 111.434 25.6467C111.434 24.933 110.916 24.3376 110.203 24.3376C109.49 24.3376 108.961 24.9228 108.961 25.6365H108.96ZM109.948 26.4894H109.577V24.8634C109.723 24.8337 109.929 24.8138 110.192 24.8138C110.496 24.8138 110.632 24.8634 110.75 24.933C110.838 25.0022 110.906 25.1312 110.906 25.2899C110.906 25.4685 110.769 25.6073 110.574 25.6667V25.6866C110.73 25.7455 110.818 25.8648 110.867 26.0829C110.916 26.3307 110.945 26.43 110.985 26.4894H110.584C110.535 26.43 110.505 26.2815 110.457 26.0926C110.427 25.9145 110.329 25.8351 110.124 25.8351H109.948V26.4899V26.4894ZM109.957 25.5674H110.133C110.339 25.5674 110.505 25.4982 110.505 25.3298C110.505 25.1808 110.398 25.081 110.162 25.081C110.065 25.081 109.996 25.0912 109.957 25.102V25.5674Z" fill="var(--fill-0, #E0DDFE)"/>
<path id="Vector_3" d="M48.8373 9.18073C48.6073 8.95289 48.3312 8.83703 48.0004 8.83703C47.6696 8.83703 47.3853 8.95289 47.164 9.18073C46.9422 9.40856 46.8337 9.70065 46.8337 10.0487V15.8614C45.6957 14.9077 44.3826 14.4267 42.8889 14.4267C41.1527 14.4267 39.6681 15.0625 38.438 16.3385C37.2079 17.61 36.5972 19.1484 36.5972 20.9526C36.5972 22.7567 37.2123 24.2907 38.438 25.5667C39.6681 26.8382 41.1489 27.4784 42.8889 27.4784C44.6289 27.4784 46.0933 26.8426 47.3397 25.5667C48.5698 24.3077 49.1806 22.7699 49.1806 20.9526V10.0487C49.1806 9.70065 49.0677 9.40856 48.8373 9.18073ZM46.524 22.525V22.5338C46.319 23.0279 46.0386 23.4616 45.6833 23.8311C45.328 24.205 44.9093 24.4971 44.4325 24.7162C43.9514 24.9352 43.441 25.0428 42.8932 25.0428C42.3454 25.0428 41.8225 24.9352 41.3414 24.7162C40.8603 24.4971 40.446 24.205 40.095 23.8355C39.7435 23.466 39.4636 23.0323 39.2586 22.5381C39.0536 22.0396 38.9489 21.5114 38.9489 20.9526C38.9489 20.3937 39.0536 19.8655 39.2586 19.367C39.4636 18.8685 39.744 18.4391 40.095 18.0696C40.4464 17.7001 40.8646 17.408 41.3414 17.1889C41.8225 16.9699 42.3372 16.8623 42.8932 16.8623C43.4492 16.8623 43.9514 16.9699 44.4325 17.1889C44.9136 17.408 45.328 17.7001 45.6833 18.074C46.0386 18.4479 46.319 18.8816 46.524 19.3714C46.729 19.8655 46.8337 20.3898 46.8337 20.9482C46.8337 21.5066 46.729 22.0352 46.524 22.525Z" fill="var(--fill-0, #E0DDFE)"/>
<path id="Vector_4" d="M100.817 18.4481C100.512 17.6745 100.046 16.9745 99.4362 16.347L99.428 16.3426C98.1854 15.071 96.6999 14.4308 94.9772 14.4308C93.2544 14.4308 91.7559 15.0666 90.5258 16.3426C89.2957 17.6142 88.6855 19.1525 88.6855 20.9567C88.6855 22.7608 89.3005 24.2948 90.5258 25.5708C91.7559 26.8424 93.2372 27.4825 94.9772 27.4825C96.5578 27.4825 97.9257 26.9543 99.089 25.8974C99.3142 25.6569 99.428 25.3648 99.428 25.025C99.428 24.6852 99.3195 24.3849 99.0972 24.157C98.8758 23.9292 98.5955 23.8134 98.2608 23.8134C97.9684 23.8221 97.7086 23.9209 97.4873 24.1186C97.1358 24.4277 96.7551 24.6643 96.3412 24.8191C95.9269 24.9739 95.4751 25.0513 94.982 25.0513C94.5465 25.0513 94.1283 24.9827 93.7312 24.841C93.3332 24.6994 92.9616 24.5056 92.6307 24.2525C92.2956 23.9988 92.0075 23.6985 91.7607 23.3416C91.514 22.9892 91.3257 22.5982 91.2004 22.1689H100.098C100.428 22.1689 100.704 22.053 100.935 21.8252C101.165 21.5973 101.278 21.3052 101.278 20.9572C101.278 20.0551 101.122 19.2173 100.818 18.4481H100.817ZM91.1913 19.7455C91.3128 19.32 91.4967 18.9291 91.7435 18.5727C91.9907 18.2203 92.2831 17.9155 92.6178 17.6619C92.9568 17.4082 93.3245 17.215 93.7303 17.0733C94.1355 16.9316 94.5494 16.863 94.9772 16.863C95.405 16.863 95.8179 16.9316 96.2188 17.0733C96.6207 17.215 96.9894 17.4082 97.3193 17.6619C97.6544 17.9155 97.9468 18.2159 98.1936 18.5727C98.4442 18.9252 98.6334 19.3161 98.763 19.7455H91.1908H91.1913Z" fill="var(--fill-0, #E0DDFE)"/>
<path id="Vector_5" d="M111.752 15.2474C111.542 15.0371 111.279 14.8735 110.961 14.7533C110.643 14.6331 110.296 14.5513 109.915 14.504C109.539 14.4568 109.183 14.4354 108.853 14.4354C108.104 14.4354 107.401 14.56 106.74 14.8093C106.079 15.0585 105.469 15.4149 104.908 15.8788V15.6471C104.908 15.3122 104.795 15.0283 104.565 14.7922C104.335 14.5561 104.063 14.4359 103.741 14.4359C103.419 14.4359 103.134 14.5561 102.905 14.7922C102.674 15.0283 102.561 15.3165 102.561 15.6471V26.272C102.561 26.6069 102.674 26.8907 102.905 27.1268C103.134 27.3629 103.41 27.4832 103.741 27.4832C104.072 27.4832 104.339 27.3629 104.565 27.1268C104.795 26.8907 104.908 26.6025 104.908 26.272V20.9573C104.908 20.3902 105.012 19.8576 105.217 19.3591C105.422 18.8606 105.703 18.4312 106.058 18.0617C106.414 17.6922 106.833 17.4001 107.309 17.1893C107.79 16.9747 108.301 16.8671 108.849 16.8671C109.398 16.8671 109.915 16.9659 110.389 17.1592C110.576 17.2453 110.74 17.2882 110.882 17.2882C111.045 17.2882 111.2 17.258 111.342 17.1937C111.484 17.1295 111.61 17.0433 111.715 16.9318C111.819 16.8203 111.902 16.6913 111.965 16.5409C112.028 16.3949 112.062 16.2357 112.062 16.0638C112.062 15.7289 111.957 15.4582 111.748 15.2474H111.752H111.752Z" fill="var(--fill-0, #E0DDFE)"/>
<path id="Vector_6" d="M62.6329 18.4526C62.3276 17.6834 61.8714 16.9789 61.2569 16.3432C60.0147 15.0716 58.5297 14.4314 56.806 14.4314C55.0823 14.4314 53.5853 15.0672 52.3552 16.3432C51.1251 17.6147 50.5148 19.1531 50.5148 20.9573C50.5148 22.7614 51.1299 24.2954 52.3552 25.5713C53.5853 26.8429 55.066 27.4831 56.806 27.4831C58.546 27.4831 60.0104 26.8473 61.2569 25.5713C62.487 24.3124 63.0977 22.7746 63.0977 20.9573C63.089 20.0552 62.9344 19.2217 62.6334 18.4526H62.6329ZM60.4411 22.5253V22.5341C60.2361 23.0282 59.9557 23.4619 59.6004 23.8314C59.2451 24.2053 58.8264 24.4974 58.3496 24.7165C57.8729 24.9356 57.3582 25.0431 56.8103 25.0431C56.2625 25.0431 55.7396 24.9356 55.2585 24.7165C54.7774 24.4974 54.3631 24.2053 54.0121 23.8358C53.6607 23.4663 53.3807 23.0326 53.1757 22.5384C52.9707 22.0399 52.866 21.5117 52.866 20.9529C52.866 20.394 52.9707 19.8658 53.1757 19.3673C53.3807 18.8688 53.6611 18.4394 54.0121 18.0699C54.3636 17.7004 54.7818 17.4083 55.2585 17.1893C55.7396 16.9702 56.2543 16.8626 56.8103 16.8626C57.3663 16.8626 57.8685 16.9702 58.3496 17.1893C58.8307 17.4083 59.2451 17.7004 59.6004 18.0743C59.9557 18.4482 60.2361 18.8819 60.4411 19.3717C60.6461 19.8658 60.7508 20.3901 60.7508 20.9485C60.7508 21.5069 60.6461 22.0356 60.4411 22.5253Z" fill="var(--fill-0, #E0DDFE)"/>
<path id="Vector_7" d="M87.7982 15.643C87.7982 15.4799 87.7646 15.3251 87.7022 15.1791C87.6393 15.033 87.5558 14.9001 87.4511 14.7882C87.3464 14.6767 87.2211 14.5861 87.079 14.5263C86.9369 14.4664 86.7823 14.4318 86.619 14.4318C86.3847 14.4318 86.1754 14.4922 85.9915 14.6168L79.2734 19.1496V10.0582C79.2734 9.71452 79.1606 9.42681 78.9306 9.19021C78.7006 8.9541 78.4289 8.83386 78.1067 8.83386C77.7845 8.83386 77.5003 8.9541 77.2698 9.19021C77.0399 9.42632 76.927 9.71452 76.927 10.0582V26.2553C76.927 26.5902 77.0399 26.8784 77.2698 27.1189C77.4998 27.3594 77.7759 27.4796 78.1067 27.4796C78.4375 27.4796 78.705 27.3594 78.9306 27.1189C79.1606 26.8784 79.2734 26.5902 79.2734 26.2553V22.0491L80.6457 21.1169L85.8369 27.1617C86.0462 27.372 86.3098 27.4752 86.6233 27.4752C86.7866 27.4752 86.9412 27.445 87.0833 27.3808C87.2254 27.3204 87.3512 27.2304 87.4554 27.1189C87.5601 27.0074 87.6436 26.8784 87.7065 26.728C87.7694 26.5819 87.8025 26.4227 87.8025 26.264C87.8025 25.9461 87.694 25.6623 87.4761 25.4135L82.6445 19.7727L87.3503 16.6021C87.6513 16.3918 87.7977 16.0695 87.7977 15.6352V15.644L87.7982 15.643Z" fill="var(--fill-0, #E0DDFE)"/>
<path id="Vector_8" d="M67.9082 18.0616C68.2678 17.6921 68.6865 17.4 69.1676 17.1892C69.6487 16.9745 70.159 16.8669 70.7069 16.8669C71.2005 16.8669 71.6566 16.9531 72.0791 17.1244C72.4973 17.2963 72.8992 17.5499 73.2794 17.8805C73.5051 18.065 73.7605 18.1594 74.0448 18.1594C74.3837 18.1594 74.6598 18.0436 74.8816 17.8113C75.1035 17.5791 75.212 17.287 75.212 16.939C75.212 16.5909 75.078 16.2686 74.8063 16.0198C73.6515 14.9629 72.2841 14.4343 70.7069 14.4343C68.9707 14.4343 67.4861 15.07 66.256 16.346C65.0259 17.6176 64.4157 19.1559 64.4157 20.9601C64.4157 22.7643 65.0307 24.2982 66.256 25.5742C67.4861 26.8458 68.9669 27.4859 70.7069 27.4859C72.2798 27.4859 73.6477 26.9577 74.8063 25.9004C75.0531 25.6428 75.1788 25.3464 75.1788 25.0027C75.1788 24.659 75.0699 24.3625 74.8485 24.1347C74.6267 23.9068 74.3468 23.791 74.0121 23.791C73.7279 23.7997 73.4806 23.8854 73.2717 24.0485C72.8953 24.3834 72.5021 24.6327 72.0796 24.8002C71.6614 24.9676 71.2053 25.0494 70.7074 25.0494C70.1595 25.0494 69.6491 24.9418 69.168 24.7271C68.687 24.5124 68.2688 24.2203 67.9087 23.8552C67.549 23.4901 67.2643 23.052 67.0593 22.5579C66.8543 22.0593 66.7496 21.5268 66.7496 20.9596C66.7496 20.3925 66.8543 19.8599 67.0593 19.3614C67.2643 18.8629 67.5486 18.4335 67.9087 18.064V18.0596L67.9082 18.0616Z" fill="var(--fill-0, #E0DDFE)"/>
</g>
</g>
<defs>
<clipPath id="clip0_0_365">
<rect width="112" height="34" fill="white"/>
</clipPath>
</defs>
</svg>
