<svg preserveAspectRatio="none" width="100%" height="100%" overflow="visible" style="display: block;" viewBox="0 0 108 34" fill="none" xmlns="http://www.w3.org/2000/svg">
<g id="Google-flutter-logo 2">
<path id="Vector" d="M33.4547 8.99322L43.5442 8.99667L43.543 11.0168C40.9037 11.0168 38.2632 11.0087 35.6227 11.0202C35.4209 11.0882 35.5161 11.3452 35.4935 11.5031L35.5014 16.9364C35.5683 17.1404 35.8221 17.0425 35.9785 17.0678L42.7509 17.0644V19.0821C40.6453 19.081 38.5408 19.081 36.4352 19.0821C36.1224 19.081 35.8062 19.0614 35.4969 19.1156L35.4731 26.7857C34.7942 26.758 34.1165 26.7834 33.4377 26.7684L33.4366 9.31933L33.4547 8.99322ZM45.9909 8.99667H48.0625L48.0636 21.0688L48.041 26.7534C47.3667 26.7407 46.6924 26.7373 46.0192 26.7557C45.9671 26.4745 45.9886 26.1887 45.9886 25.9053L45.9909 8.99667ZM66.2672 10.4936L68.3456 10.4947L68.349 14.0671C69.3656 14.0924 70.3878 14.021 71.4021 14.1028C71.3737 14.7435 71.3975 15.3842 71.3862 16.0249C70.3753 16.0272 69.3656 16.0353 68.3558 16.0203L68.3479 23.135C68.3694 23.7941 68.5077 24.5904 69.1378 24.9304C69.8574 25.3464 70.7414 25.1505 71.4224 24.7495V26.8191C70.6722 27.1648 69.8166 27.2063 69.0109 27.0945C67.8753 26.9182 66.7874 26.1311 66.444 24.9868C66.2162 24.36 66.2684 23.6835 66.2638 23.029L66.2593 16.0998L66.2083 16.0411C65.4909 16.0019 64.7713 16.0468 64.0528 16.0215C64.0574 15.3692 64.0279 14.717 64.0687 14.0659C64.7985 14.0532 65.5317 14.0993 66.2604 14.0429L66.2672 10.4936ZM75.0478 10.4867C75.739 10.5109 76.4303 10.4786 77.1205 10.5028L77.1681 10.5558C77.1942 11.7289 77.133 12.9055 77.1953 14.0763C78.1801 14.0578 79.1649 14.0728 80.1486 14.0671L80.1554 16.0099C79.1649 16.048 78.171 16.0249 77.1806 16.0192L77.1692 23.2571C77.1681 23.8875 77.3472 24.6331 77.9466 24.943C78.6821 25.351 79.574 25.1413 80.2574 24.7241L80.2551 26.8053C79.5264 27.1394 78.7048 27.204 77.9183 27.1118C76.8972 26.9735 75.8977 26.387 75.4183 25.4363C75.1872 24.9384 75.058 24.3876 75.0364 23.8379V16.0272C74.3191 16.0261 73.6028 16.0295 72.8866 16.0272L72.8912 14.0601C73.5972 14.0797 74.3032 14.0544 75.0092 14.0786C75.084 12.8847 75.0036 11.6828 75.0478 10.4867ZM85.1361 14.1339C86.5708 13.5289 88.2265 13.5174 89.6918 14.0244C91.3702 14.6133 92.6689 16.1021 93.1448 17.8295C93.4565 18.7871 93.444 19.8047 93.3998 20.8003L83.5348 20.8107C83.6164 21.8789 83.9303 22.9679 84.6601 23.7699C85.697 24.9995 87.4819 25.4558 88.9892 24.973C90.0465 24.6561 90.8715 23.8287 91.4143 22.878C92.015 23.1511 92.5986 23.4623 93.197 23.7423C92.3788 25.3279 90.8908 26.5875 89.1422 26.9286C87.7063 27.2017 86.1356 27.2086 84.8188 26.4872C83.1098 25.6241 81.9335 23.8667 81.598 21.9769C81.3544 20.5249 81.4303 18.9888 81.9675 17.6106C82.5307 16.0975 83.6696 14.7873 85.1361 14.1339ZM85.9169 15.9558C84.71 16.5227 83.9325 17.7823 83.69 19.0821L91.2557 19.0579C91.1356 18.2086 90.8387 17.3455 90.2267 16.7313C89.1546 15.5628 87.3221 15.3347 85.9169 15.9558ZM97.8909 16.1229C98.6808 14.1719 101.107 13.1475 103.026 13.9645V16.2416C102.22 15.9189 101.317 15.7195 100.466 15.9742C99.303 16.3257 98.4428 17.3801 98.1131 18.5405C97.8864 19.3241 97.9714 20.1423 97.9805 20.9455C97.8921 21.9849 98.0247 23.0255 97.9578 24.0649C98.0122 24.9626 97.9102 25.8603 97.985 26.7592C97.2801 26.7937 96.5752 26.7569 95.8715 26.7811C95.8307 24.0719 95.8658 21.3615 95.8545 18.6512L95.8703 14.089C96.531 14.1074 97.1929 14.0867 97.8547 14.1028C97.9148 14.7758 97.781 15.4522 97.8909 16.1229ZM51.0339 14.0636C51.7365 14.0936 52.4448 14.021 53.144 14.1016L53.1338 21.6542C53.127 22.5772 53.2562 23.5856 53.8841 24.3023C54.6943 25.215 56.0667 25.3821 57.1751 25.0214C58.6562 24.4821 59.6898 22.8872 59.6297 21.2924L59.6524 14.0636L61.7682 14.0682L61.7557 26.7499C61.0848 26.7384 60.4151 26.7499 59.7453 26.7419L59.7374 24.9373C59.3033 25.4916 58.8478 26.0528 58.2256 26.4019C56.9518 27.219 55.3358 27.3273 53.909 26.909C52.9888 26.6266 52.1876 25.971 51.7263 25.1136C51.179 24.171 51.0407 23.0566 51.009 21.9826L51.0339 14.0636Z" fill="var(--fill-0, #E0DDFE)"/>
<g id="Group 1597885373">
<path id="Vector_2" d="M17.9347 4.76215L25.9468 4.75317L12.5047 18.4148L9.00144 21.9572L5.01551 17.8991L17.9347 4.76215ZM17.8602 16.9604C17.9641 16.8207 18.1554 16.8895 18.3006 16.8716L25.9399 16.8736L18.9776 23.9463L14.971 19.8972L17.8602 16.9604Z" fill="var(--fill-0, #E0DDFE)"/>
<path id="Vector_3" d="M10.9772 23.9528L14.971 19.8967L18.9775 23.9458L18.9942 23.9637L14.972 28.0158L10.9772 23.9528Z" fill="var(--fill-0, #E0DDFE)"/>
<path id="Vector_4" d="M14.972 28.0159L18.9943 23.9638L25.9429 31.0365C23.3255 31.0425 20.7091 31.0345 18.0927 31.0405C17.9436 31.0744 17.8513 30.9358 17.7562 30.85L14.972 28.0159Z" fill="var(--fill-0, #E0DDFE)"/>
</g>
</g>
</svg>
