<svg preserveAspectRatio="none" width="100%" height="100%" overflow="visible" style="display: block;" viewBox="0 0 26 26" fill="none" xmlns="http://www.w3.org/2000/svg">
<g id="Frame 2087327238">
<path id="Vector" d="M18.4331 13.3224C18.7698 14.3602 19.7353 15.1177 20.883 15.1177C22.31 15.1177 23.4706 13.9571 23.4706 12.5301C23.4706 11.1032 22.31 9.94256 20.883 9.94256C19.7343 9.94256 18.7698 10.7001 18.4331 11.7379H15.1167V8.89176H20.883C21.3207 8.89176 21.6752 8.53725 21.6752 8.09954V5.68427C22.713 5.34758 23.4706 4.38305 23.4706 3.23432C23.4716 1.80733 22.311 0.646737 20.884 0.646737C19.457 0.646737 18.2954 1.80733 18.2954 3.23432C18.2954 4.38302 19.053 5.34755 20.0918 5.68427V7.30732H15.1176V3.37588C15.1176 2.15586 14.2918 1.08934 13.149 0.838746C11.0793 0.399058 9.14935 1.47153 8.29071 3.17084C8.14217 3.154 7.9956 3.13717 7.84312 3.13717C5.63182 3.13717 3.83258 4.93352 3.83258 7.13984C3.83258 7.70827 3.95538 8.2648 4.18907 8.77874C2.65908 9.3432 1.58755 10.8039 1.58755 12.5269C1.58755 14.2499 2.66002 15.7115 4.18907 16.275C3.95537 16.788 3.83258 17.3465 3.83258 17.9139C3.83258 20.1212 5.63192 21.9166 7.84312 21.9166C7.99166 21.9166 8.13823 21.8998 8.28281 21.8839C8.99976 23.3258 10.4852 24.321 12.2023 24.321C12.5123 24.321 12.8183 24.2873 13.1451 24.218C14.2879 23.9675 15.1167 22.9009 15.1167 21.6819V17.7505H20.0908V19.3735C19.053 19.7102 18.2945 20.6747 18.2945 21.8235C18.2945 23.2504 19.4561 24.411 20.8831 24.411C22.3101 24.411 23.4707 23.2504 23.4707 21.8235C23.4707 20.6747 22.7131 19.7102 21.6753 19.3735V16.9582C21.6753 16.5205 21.3208 16.166 20.8831 16.166H15.1167V13.3219L18.4331 13.3224ZM20.884 11.527C21.4366 11.527 21.8872 11.9766 21.8872 12.5301C21.8872 13.0827 21.4376 13.5333 20.884 13.5333C20.3305 13.5333 19.8799 13.0827 19.8799 12.5301C19.8799 11.9776 20.3305 11.527 20.884 11.527ZM19.8799 3.23442C19.8799 2.68085 20.3305 2.23128 20.884 2.23128C21.4366 2.23128 21.8872 2.68085 21.8872 3.23442C21.8872 3.787 21.4376 4.23756 20.884 4.23756C20.3305 4.23756 19.8799 3.787 19.8799 3.23442ZM20.884 20.8227C21.4366 20.8227 21.8872 21.2723 21.8872 21.8259C21.8872 22.3794 21.4366 22.829 20.884 22.829C20.3314 22.829 19.8799 22.3794 19.8799 21.8259C19.8799 21.2733 20.3305 20.8227 20.884 20.8227ZM13.5332 21.6842C13.5332 22.1645 13.2272 22.5805 12.8113 22.6725C12.5994 22.7181 12.3994 22.7389 12.2023 22.7389C10.6614 22.7389 9.40786 21.4852 9.40786 19.9444C9.40786 19.3344 9.59403 18.766 9.94657 18.2986C10.21 17.949 10.1397 17.4529 9.7901 17.1885C9.44153 16.9251 8.94343 16.9954 8.681 17.345C8.12051 18.0896 7.82342 18.9878 7.82342 19.9455C7.82342 20.0772 7.83134 20.2059 7.84323 20.3356C6.50637 20.3356 5.41706 19.2503 5.41706 17.9174C5.41706 17.146 5.77456 16.5964 6.0736 16.2696C6.28354 16.0418 6.34098 15.712 6.22115 15.4269C6.10132 15.1417 5.82504 14.9515 5.51507 14.9416C4.22275 14.901 3.17208 13.8186 3.17208 12.5303C3.17208 11.241 4.22374 10.1596 5.51507 10.119C5.82504 10.1091 6.10033 9.91993 6.22115 9.63373C6.34196 9.34754 6.28354 9.01877 6.0736 8.79101C5.77453 8.46421 5.41706 7.91463 5.41706 7.1432C5.41706 5.81029 6.50538 4.72494 7.84323 4.72494H7.8462C7.83332 4.85565 7.82342 4.98836 7.82342 5.12401C7.82342 6.08061 8.11952 6.97978 8.681 7.72452C8.94343 8.0731 9.44153 8.1454 9.7901 7.88098C10.1397 7.61756 10.209 7.12144 9.94657 6.77089C9.59503 6.30347 9.40786 5.73507 9.40786 5.12505C9.40786 3.38019 11.0329 2.0056 12.8145 2.38993C13.2245 2.47905 13.5335 2.90387 13.5335 3.37821L13.5325 11.7382H12.2768C11.6094 11.7382 10.9993 11.3738 10.6815 10.7856L10.3081 10.0944C10.1002 9.70915 9.61888 9.56556 9.23565 9.77352C8.85044 9.98147 8.70685 10.4617 8.9148 10.847L9.28815 11.5382C9.4971 11.9254 9.77735 12.2571 10.1031 12.5305C9.77633 12.8028 9.49709 13.1345 9.28815 13.5227L8.9148 14.214C8.70685 14.5992 8.85044 15.0795 9.23565 15.2874C9.35448 15.3528 9.48322 15.3825 9.61097 15.3825C9.89221 15.3825 10.1655 15.232 10.3091 14.9666L10.6825 14.2754C10.9984 13.6871 11.6104 13.3227 12.2778 13.3227H13.5335L13.5332 21.6842Z" fill="var(--fill-0, #E0DDFE)"/>
</g>
</svg>
