<svg preserveAspectRatio="none" width="100%" height="100%" overflow="visible" style="display: block;" viewBox="0 0 24.6241 24.6242" fill="none" xmlns="http://www.w3.org/2000/svg">
<g id="Group">
<path id="Vector" d="M12.3118 0.164384C15.5563 0.164384 18.6077 1.42883 20.9017 3.72298C23.1957 6.01698 24.4592 9.06771 24.4593 12.3118C24.4593 15.5562 23.1959 18.6075 20.9017 20.9017C18.6077 23.1958 15.5563 24.4593 12.3118 24.4593C9.96688 24.4593 7.69027 23.7898 5.72884 22.5228C3.81924 21.2892 2.29691 19.5528 1.32649 17.5023C1.16479 17.1601 1.31061 16.7512 1.65267 16.5892C1.77308 16.5322 1.90229 16.5151 2.02571 16.5296C2.04893 16.5269 2.07419 16.5238 2.10091 16.5238H8.35286C8.7314 16.5239 9.03836 16.8308 9.03841 17.2093C9.03841 17.5879 8.73143 17.8947 8.35286 17.8949H3.09505C5.03307 21.0812 8.53976 23.0881 12.3118 23.0882C18.2536 23.0882 23.0882 18.2536 23.0882 12.3118C23.0881 6.37025 18.2535 1.53645 12.3118 1.53645C6.37025 1.53656 1.53659 6.37031 1.53645 12.3118C1.53645 12.6903 1.2294 12.9971 0.850908 12.9974C0.472156 12.9974 0.164384 12.6905 0.164384 12.3118C0.164448 9.06758 1.42895 6.01701 3.72298 3.72298C6.01702 1.42894 9.06756 0.164433 12.3118 0.164384Z" fill="var(--fill-0, #E0DDFE)" stroke="var(--stroke-0, #E0DDFE)" stroke-width="0.329423"/>
<path id="Vector_2" d="M12.3119 2.76901C17.5736 2.76914 21.8539 7.0502 21.8539 12.312C21.8537 17.5736 17.5735 21.8538 12.3119 21.854C10.8131 21.854 9.37699 21.5157 8.04527 20.8491C7.70673 20.6795 7.5691 20.2678 7.73863 19.9292C7.88709 19.6327 8.22158 19.4909 8.52964 19.5737L8.65855 19.6235L9.09019 19.8237C10.1063 20.2613 11.1877 20.4829 12.3119 20.4829C16.8171 20.4827 20.4826 16.8172 20.4828 12.312C20.4828 7.80675 16.8172 4.14121 12.3119 4.14108C7.80651 4.14108 4.14097 7.80662 4.14097 12.312C4.14084 12.6905 3.83305 12.9975 3.45445 12.9975C3.07603 12.9973 2.76903 12.6903 2.7689 12.312C2.7689 7.05012 7.05002 2.76901 12.3119 2.76901Z" fill="var(--fill-0, #E0DDFE)" stroke="var(--stroke-0, #E0DDFE)" stroke-width="0.329423"/>
<path id="Vector_3" d="M12.311 5.37484C16.1364 5.37484 19.2483 8.48697 19.2485 12.3123C19.2485 16.1378 16.1365 19.2498 12.311 19.2498C11.9324 19.2497 11.6255 18.9428 11.6255 18.5643C11.6255 18.1858 11.9325 17.8789 12.311 17.8787C15.38 17.8787 17.8774 15.3814 17.8774 12.3123C17.8772 9.24341 15.3799 6.74691 12.311 6.74691C9.24223 6.74707 6.74573 9.24356 6.74557 12.3123C6.74557 12.6908 6.43851 12.9976 6.06002 12.9979C5.68127 12.9979 5.3735 12.691 5.3735 12.3123C5.37366 8.48707 8.48579 5.375 12.311 5.37484Z" fill="var(--fill-0, #E0DDFE)" stroke="var(--stroke-0, #E0DDFE)" stroke-width="0.329423"/>
<path id="Vector_4" d="M12.3111 7.97944C14.7003 7.97948 16.6441 9.92337 16.6441 12.3124C16.6441 14.7016 14.7002 16.6454 12.3111 16.6455C11.9324 16.6455 11.6256 16.3376 11.6256 15.9589C11.6258 15.5805 11.9325 15.2734 12.3111 15.2734C13.9438 15.2733 15.272 13.9451 15.272 12.3124C15.272 10.6798 13.9438 9.35158 12.3111 9.35151C10.6785 9.35151 9.35017 10.6798 9.35017 12.3124C9.35016 12.6909 9.0431 12.9977 8.66462 12.998C8.28595 12.998 7.97814 12.6911 7.9781 12.3124C7.9781 9.92329 9.92195 7.97944 12.3111 7.97944Z" fill="var(--fill-0, #E0DDFE)" stroke="var(--stroke-0, #E0DDFE)" stroke-width="0.329423"/>
<path id="Vector_5" d="M2.84625 14.6412H1.80429V15.6831H2.84625V14.6412Z" fill="var(--fill-0, #E0DDFE)" stroke="var(--stroke-0, #E0DDFE)" stroke-width="0.329423"/>
<path id="Vector_6" d="M4.73064 14.6412H3.68868V15.6831H4.73064V14.6412Z" fill="var(--fill-0, #E0DDFE)" stroke="var(--stroke-0, #E0DDFE)" stroke-width="0.329423"/>
<path id="Vector_7" d="M6.6101 14.6412H5.56814V15.6831H6.6101V14.6412Z" fill="var(--fill-0, #E0DDFE)" stroke="var(--stroke-0, #E0DDFE)" stroke-width="0.329423"/>
<path id="Vector_8" d="M8.49942 14.6412H7.45746V15.6831H8.49942V14.6412Z" fill="var(--fill-0, #E0DDFE)" stroke="var(--stroke-0, #E0DDFE)" stroke-width="0.329423"/>
</g>
</svg>
