<svg preserveAspectRatio="none" width="100%" height="100%" overflow="visible" style="display: block;" viewBox="0 0 88 34" fill="none" xmlns="http://www.w3.org/2000/svg">
<g id="Kotlin_logo_(2021-present) 2">
<g id="Group 1597885376">
<path id="Vector" d="M83.059 13.934C82.0286 13.934 81.1218 14.1858 80.3489 14.6996C79.7287 15.1069 79.2331 15.6499 78.8419 16.3286L78.823 14.2549H76.1025V27.6717H78.9362V20.1686C78.9362 19.4414 79.0698 18.8002 79.3465 18.2379C79.6136 17.6756 79.9969 17.2401 80.493 16.9298C80.9892 16.6196 81.5604 16.4641 82.2283 16.4641C82.8198 16.4641 83.3361 16.5905 83.7558 16.8426C84.1852 17.0947 84.4993 17.462 84.7187 17.9275C84.9382 18.4026 85.0431 18.9662 85.0431 19.6157V27.6716H87.8769V19.2075C87.8959 18.1701 87.6862 17.2591 87.295 16.4641C86.9166 15.694 86.3309 15.0487 85.6061 14.6031C84.8809 14.1572 84.0323 13.934 83.059 13.934Z" fill="var(--fill-0, #E0DDFE)"/>
<path id="Vector_2" d="M70.0446 8.49346V11.4497H72.9075V8.49346H70.0446ZM70.0446 14.1268V27.5436H72.8783V14.1268H70.0446Z" fill="var(--fill-0, #E0DDFE)"/>
<path id="Vector_3" d="M64.0143 8.49346V27.5734H66.8481V8.49346H64.0143Z" fill="var(--fill-0, #E0DDFE)"/>
<path id="Vector_4" d="M55.9425 10.8735V13.1513C55.9425 13.51 55.8568 13.7825 55.6851 13.957C55.5133 14.1316 55.2461 14.2291 54.8835 14.2291H53.519V16.6429H55.8945V23.8651C55.8945 24.6117 56.0466 25.2813 56.3424 25.8534C56.6382 26.4254 57.0677 26.8704 57.6212 27.1806C58.1746 27.4909 58.8343 27.6567 59.5881 27.6567H61.7147V25.1453H60.1116C59.7013 25.1453 59.3678 25.0001 59.1007 24.7093C58.8431 24.4184 58.7196 24.0307 58.7196 23.546V16.6517H61.792V14.2292H58.7196V10.8736L55.9425 10.8735Z" fill="var(--fill-0, #E0DDFE)"/>
<path id="Vector_5" d="M46.1326 13.5935C44.8158 13.5935 43.6421 13.8941 42.602 14.4952C41.5795 15.0806 40.7374 15.9435 40.1699 16.9875C39.5878 18.0539 39.3014 19.2658 39.3014 20.6134C39.3014 21.9708 39.5878 23.1729 40.1699 24.2394C40.7247 25.2864 41.5619 26.151 42.5831 26.7317C43.6232 27.3328 44.7969 27.6334 46.1137 27.6334C47.4113 27.6334 48.5761 27.3328 49.6065 26.7317C50.6183 26.1447 51.4478 25.2813 52.0009 24.2394C52.5734 23.1729 52.8591 21.9611 52.8591 20.6134C52.8591 19.256 52.5734 18.054 52.0009 16.9875C51.4284 15.921 50.637 15.0963 49.6065 14.4952C48.5856 13.8941 47.4302 13.5935 46.1326 13.5935ZM46.1137 16.1817C46.8484 16.1817 47.5072 16.367 48.0893 16.7451C48.6618 17.1232 49.1098 17.6467 49.4246 18.3061C49.7395 18.9751 49.8932 19.7399 49.8932 20.6222C49.9028 21.4948 49.7491 22.2607 49.4246 22.9297C49.1098 23.5987 48.6618 24.1222 48.0893 24.4907C47.5168 24.8688 46.8495 25.054 46.1052 25.054C45.3514 25.054 44.6834 24.8688 44.0919 24.4907C43.5099 24.1125 43.0518 23.589 42.7274 22.9297C42.403 22.2607 42.24 21.4949 42.24 20.6222C42.24 19.7497 42.403 18.9751 42.7274 18.3061C43.0518 17.6371 43.5099 17.1135 44.0919 16.7451C44.674 16.367 45.3504 16.1817 46.1137 16.1817Z" fill="var(--fill-0, #E0DDFE)"/>
<path id="Vector_6" d="M36.2482 9.17391L28.4438 17.638V9.20186H25.562V27.546H28.4438V18.6565L36.2773 27.546H39.9882L31.6396 18.0547L39.8354 9.17382L36.2482 9.17391Z" fill="var(--fill-0, #E0DDFE)"/>
</g>
<path id="Vector_7" d="M18.0625 27.1781H0V8.83389H18.0625L8.84496 17.8698L18.0625 27.1781Z" fill="var(--fill-0, #E0DDFE)"/>
</g>
</svg>
