<svg preserveAspectRatio="none" width="100%" height="100%" overflow="visible" style="display: block;" viewBox="0 0 159 34" fill="none" xmlns="http://www.w3.org/2000/svg">
<g id="Kubernetes_logo 2">
<path id="path10349" d="M26.0305 10.5337C25.8736 10.0238 25.497 9.60939 25.0263 9.3544L15.4552 4.70076C15.2041 4.57326 14.9217 4.54139 14.6706 4.54139C14.4196 4.54139 14.1372 4.54139 13.8861 4.60514L4.31497 9.29065C3.84426 9.51377 3.49907 9.92814 3.37355 10.47L1.01998 20.9566C0.925841 21.4985 1.05136 22.0403 1.36517 22.4866L7.98653 30.8058C8.3631 31.1883 8.89657 31.4432 9.43005 31.4751H19.974C20.5389 31.5389 21.0723 31.2839 21.4175 30.8058L28.0389 22.4866C28.3527 22.0403 28.4782 21.4985 28.4155 20.9566L26.0305 10.5337Z" fill="var(--fill-0, #E0DDFE)"/>
<path id="path10351" d="M24.5555 20.5421C24.5241 20.5421 24.4928 20.5421 24.4928 20.5103C24.4928 20.4784 24.43 20.4784 24.3672 20.4784C24.2417 20.4465 24.1162 20.4465 23.9907 20.4465C23.9279 20.4465 23.8651 20.4465 23.8024 20.4146H23.771C23.4258 20.3828 23.0492 20.319 22.7041 20.2234C22.6099 20.1915 22.5158 20.0959 22.4844 20.0003L22.2333 19.9365C22.3589 19.0122 22.2961 18.0559 22.1078 17.1316C21.8882 16.2072 21.5116 15.3148 21.0095 14.5179L21.1978 14.3267V14.2948C21.1978 14.1992 21.2292 14.0717 21.2919 14.0079C21.5743 13.7529 21.8568 13.5617 22.1706 13.3704C22.2333 13.3386 22.2961 13.3067 22.3589 13.2748C22.4844 13.2111 22.5785 13.1473 22.7041 13.0836C22.7354 13.0517 22.7668 13.0517 22.7982 13.0198C22.8296 12.9879 22.7982 12.9879 22.7982 12.9561C23.0806 12.7329 23.1434 12.3505 22.9237 12.0636C22.8296 11.9361 22.6413 11.8405 22.4844 11.8405C22.3275 11.8405 22.1706 11.9042 22.0451 11.9998L22.0137 12.0317C21.9823 12.0636 21.9509 12.0955 21.9195 12.0955C21.8254 12.1911 21.7312 12.2867 21.6685 12.3823C21.6371 12.4461 21.5743 12.4779 21.543 12.5098C21.3233 12.7648 21.0409 13.0198 20.7584 13.2111C20.6957 13.2429 20.6329 13.2748 20.5702 13.2748C20.5388 13.2748 20.476 13.2748 20.4446 13.2429H20.4133L20.1622 13.4023C19.9112 13.1473 19.6287 12.8923 19.3777 12.6373C18.2166 11.713 16.7731 11.1392 15.2982 10.9799L15.2668 10.7249V10.7567C15.1727 10.693 15.1413 10.5974 15.1099 10.5017C15.1099 10.1511 15.1099 9.80051 15.1727 9.41802V9.38615C15.1727 9.3224 15.204 9.25865 15.204 9.1949C15.2354 9.0674 15.2354 8.93991 15.2668 8.81241V8.62117C15.2982 8.30242 15.0471 7.98368 14.7333 7.95181C14.545 7.91993 14.3568 8.01555 14.1998 8.17493C14.0743 8.30242 14.0116 8.46179 14.0116 8.62117V8.78054C14.0116 8.90803 14.0429 9.03553 14.0743 9.16303C14.1057 9.22678 14.1057 9.29052 14.1057 9.35427V9.38615C14.1685 9.73676 14.1685 10.0874 14.1685 10.4699C14.1371 10.5655 14.1057 10.6611 14.0116 10.7249V10.7886L13.9802 11.0436C13.635 11.0755 13.2898 11.1392 12.9132 11.203C11.4383 11.5217 10.089 12.3186 9.05339 13.4342L8.86511 13.3067H8.83373C8.80234 13.3067 8.77096 13.3386 8.7082 13.3386C8.64544 13.3386 8.58268 13.3067 8.51992 13.2748C8.23749 13.0517 7.95506 12.7967 7.7354 12.5417C7.70402 12.4779 7.64125 12.4461 7.60987 12.4142C7.51573 12.3186 7.45297 12.223 7.35883 12.1273C7.32745 12.0955 7.29606 12.0955 7.26468 12.0636C7.2333 12.0317 7.2333 12.0317 7.2333 12.0317C7.10778 11.9361 6.95088 11.8723 6.79397 11.8723C6.60569 11.8723 6.44878 11.9361 6.35464 12.0955C6.16635 12.3823 6.22912 12.7648 6.48016 12.9879C6.51154 12.9879 6.51154 13.0198 6.51154 13.0198C6.51154 13.0198 6.57431 13.0836 6.60569 13.0836C6.69983 13.1473 6.82535 13.2111 6.95088 13.2748C7.01364 13.3067 7.0764 13.3386 7.13916 13.3704C7.45297 13.5617 7.76678 13.7529 8.01782 14.0079C8.08059 14.0717 8.14335 14.1992 8.11197 14.2948V14.2629L8.30025 14.4542C8.26887 14.5179 8.23749 14.5498 8.20611 14.6135C7.2333 16.1754 6.82535 18.0241 7.10778 19.8409L6.85673 19.9046C6.85673 19.9365 6.82535 19.9365 6.82535 19.9365C6.79397 20.0321 6.69983 20.0959 6.60569 20.1596C6.2605 20.2553 5.91531 20.319 5.53874 20.3509C5.47598 20.3509 5.41321 20.3509 5.35045 20.3828C5.22493 20.3828 5.09941 20.4146 4.97388 20.4146C4.9425 20.4146 4.91112 20.4465 4.84836 20.4465C4.81698 20.4465 4.81698 20.4465 4.7856 20.4784C4.44041 20.5421 4.22074 20.8609 4.2835 21.2115C4.34627 21.4984 4.62869 21.6896 4.91112 21.6577C4.97388 21.6577 5.00526 21.6577 5.06803 21.6259C5.09941 21.6259 5.09941 21.6259 5.09941 21.594C5.09941 21.5621 5.19355 21.594 5.22493 21.594C5.35045 21.5621 5.47598 21.4984 5.57012 21.4665C5.63288 21.4346 5.69564 21.4027 5.7584 21.4027H5.78978C6.13497 21.2752 6.44878 21.1796 6.82535 21.1159H6.85673C6.95088 21.1159 7.04502 21.1477 7.10778 21.2115C7.13916 21.2115 7.13916 21.2434 7.13916 21.2434L7.42159 21.2115C7.8923 22.6777 8.77096 23.9846 9.99482 24.9408C10.2772 25.1639 10.5283 25.3551 10.8421 25.5145L10.6852 25.7376C10.6852 25.7695 10.7166 25.7695 10.7166 25.7695C10.7793 25.8651 10.7793 25.9926 10.748 26.0883C10.6224 26.407 10.4341 26.7257 10.2459 27.0126V27.0445C10.2145 27.1082 10.1831 27.1401 10.1203 27.2039C10.0576 27.2676 9.99482 27.3951 9.90067 27.5226C9.86929 27.5545 9.86929 27.5863 9.83791 27.6182C9.83791 27.6182 9.83791 27.6501 9.80653 27.6501C9.64963 27.9688 9.77515 28.3513 10.0576 28.5107C10.1203 28.5426 10.2145 28.5744 10.2772 28.5744C10.5283 28.5744 10.748 28.4151 10.8735 28.192C10.8735 28.192 10.8735 28.1601 10.9049 28.1601C10.9049 28.1282 10.9362 28.0963 10.9676 28.0645C10.999 27.937 11.0618 27.8413 11.0931 27.7138L11.1559 27.5226C11.25 27.172 11.407 26.8532 11.5639 26.5345C11.6266 26.4389 11.7208 26.3751 11.8149 26.3432C11.8463 26.3432 11.8463 26.3432 11.8463 26.3114L11.9718 26.0564C12.8505 26.407 13.7605 26.5664 14.7019 26.5664C15.2668 26.5664 15.8317 26.5026 16.3965 26.3432C16.7417 26.2795 17.0869 26.152 17.4007 26.0564L17.5262 26.2795C17.5576 26.2795 17.5576 26.2795 17.5576 26.3114C17.6517 26.3432 17.7459 26.407 17.8086 26.5026C17.9655 26.8214 18.1225 27.1401 18.2166 27.4907V27.5226L18.2794 27.7138C18.3107 27.8413 18.3421 27.9688 18.4049 28.0645C18.4363 28.0963 18.4363 28.1282 18.4676 28.1601C18.4676 28.1601 18.4676 28.192 18.499 28.192C18.6245 28.4151 18.8442 28.5744 19.0953 28.5744C19.1894 28.5744 19.2522 28.5426 19.3463 28.5107C19.4718 28.4469 19.5974 28.3195 19.6287 28.1601C19.6601 28.0007 19.6601 27.8413 19.5974 27.682C19.5974 27.6501 19.566 27.6501 19.566 27.6501C19.566 27.6182 19.5346 27.5863 19.5032 27.5545C19.4404 27.427 19.3777 27.3313 19.2835 27.2357C19.2522 27.172 19.2208 27.1401 19.158 27.0764V27.0126C18.9384 26.7257 18.7815 26.407 18.6559 26.0883C18.6245 25.9926 18.6245 25.8651 18.6873 25.7695C18.6873 25.7376 18.7187 25.7376 18.7187 25.7376L18.6245 25.4826C20.225 24.4945 21.4488 22.9646 22.0137 21.1477L22.2647 21.1796C22.2961 21.1796 22.2961 21.1477 22.2961 21.1477C22.3589 21.084 22.453 21.0521 22.5471 21.0521H22.5785C22.9237 21.1159 23.2689 21.2115 23.5827 21.339H23.6141C23.6769 21.3709 23.7396 21.4027 23.8024 21.4027C23.9279 21.4665 24.0221 21.5302 24.1476 21.5621C24.179 21.5621 24.2103 21.594 24.2731 21.594C24.3045 21.594 24.3045 21.594 24.3359 21.6259C24.3986 21.6577 24.43 21.6577 24.4928 21.6577C24.7752 21.6577 25.0262 21.4665 25.1204 21.2115C25.089 20.8609 24.838 20.6059 24.5555 20.5421ZM15.4865 19.554L14.6392 19.9684L13.7919 19.554L13.5722 18.6297L14.1685 17.8647H15.1099L15.7061 18.6297L15.4865 19.554ZM20.6015 17.4822C20.7584 18.1516 20.7898 18.8209 20.7271 19.4903L17.7459 18.6297C17.4635 18.5659 17.3066 18.2791 17.3693 17.9922C17.4007 17.8966 17.4321 17.8328 17.4948 17.7691L19.8484 15.6016C20.1936 16.1754 20.4446 16.8128 20.6015 17.4822ZM18.907 14.4223L16.3337 16.271C16.1141 16.3985 15.8003 16.3666 15.6434 16.1435C15.5806 16.0797 15.5492 16.016 15.5492 15.9204L15.3609 12.7011C16.7417 12.8604 17.9655 13.4661 18.907 14.4223ZM13.227 12.7967L13.8547 12.6692L13.6978 15.8566C13.6978 16.1435 13.4467 16.3666 13.1643 16.3666C13.0701 16.3666 13.0074 16.3347 12.9132 16.3029L10.3086 14.4223C11.1245 13.6254 12.1287 13.0517 13.227 12.7967ZM9.39858 15.6016L11.7208 17.7053C11.9404 17.8966 11.9718 18.2153 11.7835 18.4384C11.7208 18.5341 11.658 18.5659 11.5325 18.5978L8.48854 19.4903C8.39439 18.1516 8.7082 16.781 9.39858 15.6016ZM8.86511 20.9884L11.9718 20.4465C12.2229 20.4465 12.4739 20.6059 12.5053 20.8609C12.5367 20.9565 12.5367 21.084 12.4739 21.1796L11.2814 24.1121C10.1831 23.3789 9.30444 22.2633 8.86511 20.9884ZM15.9886 24.9408C15.5492 25.0364 15.1099 25.1002 14.6392 25.1002C13.9802 25.1002 13.2898 24.9727 12.6622 24.7814L14.1998 21.9446C14.3568 21.7534 14.6078 21.6896 14.8275 21.8171C14.9216 21.8809 14.9844 21.9446 15.0785 22.0402L16.5848 24.8133C16.3965 24.8452 16.2082 24.877 15.9886 24.9408ZM19.817 22.1677C19.3463 22.9327 18.6873 23.6021 17.9342 24.0802L16.7103 21.084C16.6476 20.829 16.7731 20.574 16.9927 20.4784C17.0869 20.4465 17.181 20.4146 17.2752 20.4146L20.4133 20.9565C20.2563 21.4027 20.0681 21.8171 19.817 22.1677Z" fill="var(--fill-0, #141414)"/>
<path id="path3003" d="M153.029 24.4621C153.468 24.494 153.939 24.4302 154.347 24.2709C154.598 24.1434 154.755 23.8565 154.723 23.5696C154.692 23.2509 154.504 22.964 154.221 22.8684C153.751 22.5815 153.217 22.3265 152.684 22.1672C152.15 21.9759 151.679 21.7528 151.24 21.5297C150.832 21.3384 150.487 21.0835 150.142 20.7647C149.828 20.446 149.608 20.0954 149.451 19.681C149.263 19.2029 149.2 18.6929 149.2 18.1829C149.169 17.131 149.64 16.1111 150.456 15.4736C151.303 14.8042 152.433 14.4855 153.876 14.4855C154.566 14.4855 155.288 14.5492 155.979 14.7086C156.512 14.8042 157.046 14.9317 157.579 15.123L156.983 17.8323C156.543 17.6729 156.136 17.5773 155.696 17.4498C155.194 17.3223 154.661 17.2904 154.159 17.2904C153.092 17.2904 152.558 17.5773 152.558 18.1829C152.558 18.3104 152.589 18.4379 152.621 18.5654C152.684 18.6929 152.778 18.7885 152.903 18.8841C153.029 18.9798 153.217 19.0754 153.437 19.2029C153.656 19.3304 153.97 19.4579 154.347 19.5854C154.974 19.8085 155.602 20.0953 156.167 20.4141C156.606 20.6372 156.983 20.9241 157.297 21.3066C157.579 21.5934 157.767 21.9441 157.893 22.3584C158.018 22.8047 158.081 23.2509 158.081 23.6971C158.144 24.7809 157.642 25.8327 156.732 26.4383C155.853 27.0439 154.598 27.3627 152.966 27.3627C152.056 27.3946 151.177 27.2989 150.299 27.0758C149.797 26.9483 149.326 26.7889 148.855 26.6296L149.42 23.8246C149.985 24.0478 150.581 24.239 151.177 24.3665C151.805 24.3984 152.401 24.4621 153.029 24.4621ZM135.738 20.956C135.707 19.9997 135.895 19.0435 136.209 18.151C136.491 17.386 136.93 16.7167 137.495 16.1111C138.029 15.5692 138.625 15.1548 139.315 14.8998C140.006 14.613 140.728 14.4855 141.449 14.4855C143.144 14.4855 144.493 15.0273 145.466 16.0792C146.439 17.131 146.941 18.6929 146.941 20.7328C146.941 20.9241 146.941 21.1472 146.91 21.4022C146.91 21.6572 146.878 21.8484 146.878 22.0397H139.221C139.284 22.709 139.629 23.3465 140.194 23.729C140.884 24.1753 141.7 24.3984 142.516 24.3665C143.112 24.3665 143.74 24.3028 144.336 24.2071C144.838 24.1115 145.341 23.9521 145.811 23.729L146.282 26.5339C146.062 26.6614 145.811 26.7252 145.56 26.8208C145.215 26.9164 144.87 27.0121 144.525 27.0439C144.148 27.1077 143.771 27.1714 143.332 27.2352C142.924 27.2671 142.485 27.2989 142.046 27.2989C141.073 27.3308 140.131 27.1714 139.221 26.8208C138.468 26.5339 137.809 26.0877 137.244 25.514C136.711 24.9402 136.334 24.239 136.083 23.5059C135.864 22.6453 135.738 21.7847 135.738 20.956ZM143.677 19.6491C143.677 19.3622 143.615 19.0754 143.52 18.7885C143.458 18.5016 143.301 18.2785 143.144 18.0554C142.956 17.8323 142.736 17.641 142.485 17.5135C142.171 17.3542 141.857 17.2904 141.512 17.2904C141.167 17.2904 140.853 17.3542 140.539 17.5135C140.288 17.641 140.037 17.8004 139.849 18.0235C139.661 18.2466 139.504 18.5016 139.41 18.7885C139.315 19.0754 139.253 19.3622 139.221 19.6491H143.677ZM126.543 11.7443L129.933 11.2024V14.7724H134.012V17.641H129.933V21.9122C129.901 22.5178 130.027 23.1234 130.309 23.6334C130.56 24.0478 131.062 24.2709 131.847 24.2709C132.223 24.2709 132.6 24.239 132.945 24.1753C133.322 24.1115 133.667 24.0159 134.012 23.8884L134.483 26.5658C134.043 26.7571 133.573 26.8846 133.102 27.0121C132.506 27.1396 131.878 27.2033 131.251 27.2033C130.466 27.2352 129.681 27.1077 128.96 26.8208C128.395 26.5977 127.893 26.2152 127.516 25.769C127.14 25.2909 126.889 24.7171 126.732 24.1115C126.575 23.4103 126.512 22.6772 126.543 21.9759V11.7443ZM112.83 20.956C112.799 19.9997 112.987 19.0435 113.301 18.151C113.583 17.386 114.022 16.7167 114.587 16.1111C115.121 15.5692 115.717 15.1548 116.407 14.8998C117.098 14.613 117.82 14.4855 118.541 14.4855C120.236 14.4855 121.585 15.0273 122.558 16.0792C123.531 17.131 124.033 18.6929 124.033 20.7328C124.033 20.9241 124.033 21.1472 124.002 21.4022C123.97 21.6572 123.97 21.8484 123.97 22.0397H116.282C116.345 22.709 116.69 23.3465 117.255 23.729C117.945 24.1753 118.761 24.3984 119.577 24.3665C120.173 24.3665 120.801 24.3028 121.397 24.2071C121.899 24.1115 122.401 23.9521 122.903 23.729L123.374 26.5339C123.154 26.6614 122.903 26.7252 122.652 26.8208C122.307 26.9164 121.962 27.0121 121.617 27.0439C121.24 27.1077 120.863 27.1714 120.424 27.2352C120.016 27.2671 119.577 27.2989 119.138 27.2989C118.165 27.3308 117.223 27.1714 116.313 26.8208C115.56 26.5339 114.901 26.0877 114.336 25.514C113.803 24.9402 113.426 24.239 113.175 23.5059C112.924 22.6453 112.799 21.7847 112.83 20.956ZM120.769 19.6491C120.769 19.3622 120.707 19.0754 120.612 18.7885C120.55 18.5016 120.393 18.2785 120.236 18.0554C120.048 17.8323 119.828 17.641 119.577 17.5135C119.263 17.3542 118.949 17.2904 118.604 17.2904C118.259 17.2904 117.945 17.3542 117.631 17.5135C117.38 17.641 117.161 17.8004 116.972 18.0235C116.784 18.2466 116.627 18.5016 116.533 18.7885C116.439 19.0754 116.376 19.3622 116.345 19.6491H120.769ZM99.9638 15.1867C100.686 14.9955 101.439 14.8361 102.192 14.7086C103.133 14.5492 104.106 14.4855 105.048 14.4855C105.895 14.4536 106.742 14.613 107.558 14.8998C108.186 15.123 108.75 15.5055 109.158 16.0154C109.566 16.5254 109.849 17.131 110.006 17.7685C110.194 18.5016 110.257 19.2666 110.257 20.0316V26.8846H106.899V20.4778C106.899 19.3622 106.742 18.5973 106.46 18.1191C106.177 17.6729 105.644 17.4179 104.859 17.4179C104.608 17.4179 104.357 17.4179 104.075 17.4498C103.792 17.4498 103.573 17.4817 103.353 17.5135V26.8846H99.9638V15.1867ZM97.5789 17.8323C97.2651 17.7685 96.9199 17.6729 96.5119 17.6092C96.0726 17.5135 95.6333 17.4817 95.1939 17.4817C94.9429 17.4817 94.6919 17.5135 94.4094 17.5454C94.1898 17.5773 93.9701 17.6092 93.7504 17.6729V26.9483H90.3613V15.4098C91.0517 15.1548 91.7734 14.9636 92.4952 14.8042C93.4052 14.5811 94.3467 14.4855 95.2567 14.5174C95.4764 14.5174 95.696 14.5492 95.9157 14.5492C96.1667 14.5492 96.4178 14.5811 96.7002 14.6449C96.9513 14.6767 97.2023 14.7086 97.4847 14.7724C97.7044 14.8042 97.9241 14.868 98.1437 14.9636L97.5789 17.8323ZM76.5223 20.956C76.491 19.9997 76.6792 19.0435 76.9931 18.151C77.2755 17.386 77.7148 16.7167 78.2797 16.1111C78.8131 15.5692 79.4094 15.1548 80.0998 14.8998C80.7901 14.613 81.5119 14.4855 82.2337 14.4855C83.9282 14.4855 85.2776 15.0273 86.2504 16.0792C87.2232 17.131 87.7253 18.6929 87.7253 20.701C87.7253 20.8922 87.7253 21.1153 87.6939 21.3703C87.6625 21.6253 87.6625 21.8166 87.6625 22.0078H79.9742C80.037 22.6772 80.3822 23.3146 80.947 23.6971C81.6374 24.1434 82.4533 24.3665 83.2692 24.3346C83.8655 24.3346 84.4931 24.2709 85.0893 24.1753C85.5914 24.0796 86.0935 23.9203 86.5642 23.729L87.0349 26.5339C86.8153 26.6614 86.5642 26.7252 86.3132 26.8208C85.968 26.9164 85.6228 27.0121 85.2776 27.0439C84.901 27.1077 84.5245 27.1714 84.0851 27.2352C83.6772 27.2671 83.2378 27.2989 82.7985 27.2989C81.8257 27.3308 80.8843 27.1714 79.9742 26.8208C79.2211 26.5339 78.5621 26.0877 77.9972 25.514C77.4638 24.9402 77.0872 24.239 76.8362 23.5059C76.6479 22.6453 76.5223 21.8166 76.5223 20.956ZM84.4931 19.6491C84.4931 19.3622 84.4303 19.0754 84.3362 18.7885C84.2734 18.5016 84.1165 18.2785 83.9596 18.0554C83.7713 17.8323 83.5517 17.641 83.3006 17.5135C82.9868 17.3542 82.673 17.2904 82.3278 17.2904C81.9826 17.2904 81.6688 17.3542 81.355 17.5135C81.1039 17.641 80.8529 17.8004 80.6646 18.0235C80.4763 18.2466 80.3194 18.5016 80.2253 18.7885C80.1311 19.0754 80.0684 19.3622 80.037 19.6491H84.4931ZM71.0307 20.7647C71.0307 18.5335 70.2148 17.4498 68.6144 17.4498C68.2692 17.4498 67.924 17.4817 67.5788 17.5773C67.2964 17.641 67.014 17.7685 66.7629 17.9279V24.1753C66.9198 24.2071 67.1395 24.239 67.3905 24.2709C67.6416 24.3028 67.924 24.3028 68.2378 24.3028C69.0537 24.3665 69.8382 24.0159 70.3403 23.3465C70.811 22.5815 71.0621 21.6891 71.0307 20.7647ZM74.4826 20.8922C74.4826 21.7847 74.3571 22.6772 74.0433 23.5378C73.7922 24.3028 73.3843 24.9721 72.8508 25.5458C72.2859 26.1196 71.6269 26.5658 70.9052 26.8527C70.0579 27.1714 69.1792 27.2989 68.2692 27.2989C67.8612 27.2989 67.4219 27.2671 66.9826 27.2352C66.5432 27.2033 66.1039 27.1396 65.6646 27.1077C65.2566 27.0439 64.8487 26.9802 64.4407 26.8846C64.0328 26.8208 63.6876 26.7252 63.4052 26.5977V9.54497L66.7943 9.00311V15.0592C67.1709 14.8998 67.5788 14.7724 67.9868 14.6767C68.4261 14.5811 68.8654 14.5492 69.3048 14.5492C70.0893 14.5492 70.8424 14.6767 71.5642 15.0273C72.1918 15.3142 72.7566 15.7605 73.196 16.3023C73.6667 16.9079 74.0119 17.5773 74.2002 18.3104C74.3884 19.1072 74.4826 19.9997 74.4826 20.8922ZM60.1729 26.5021C59.4512 26.6933 58.698 26.8527 57.9449 26.9483C57.0035 27.1077 56.0307 27.1714 55.0892 27.1714C54.2106 27.2033 53.3633 27.0439 52.5474 26.7571C51.9198 26.5021 51.3863 26.1196 50.947 25.6096C50.539 25.0677 50.2566 24.4621 50.0997 23.7928C49.9114 23.0597 49.8486 22.2628 49.8486 21.4978V14.7724H53.2378V21.1153C53.2378 22.2309 53.3947 23.0278 53.6771 23.5059C53.9595 23.984 54.493 24.239 55.2775 24.239C55.5286 24.239 55.7796 24.239 56.062 24.2071C56.3445 24.1753 56.5641 24.1753 56.7838 24.1115V14.7724H60.1729V26.5021ZM40.403 19.171C40.7482 18.7885 41.062 18.406 41.4386 18.0235C41.7838 17.6092 42.1289 17.2267 42.4741 16.8442C42.8193 16.4298 43.1331 16.0792 43.4156 15.7286C43.698 15.378 43.9804 15.0592 44.2001 14.8042H48.2168C47.4009 15.7286 46.6164 16.6529 45.8633 17.5135C45.0787 18.3741 44.2628 19.2666 43.3528 20.1591C43.8549 20.6372 44.3256 21.1153 44.7649 21.6572C45.2357 22.2309 45.7064 22.8047 46.1771 23.4421C46.6164 24.0478 47.0557 24.6852 47.4323 25.2909C47.8089 25.8965 48.1227 26.4702 48.3737 26.9802H44.4825C44.2315 26.5658 43.949 26.1515 43.6352 25.6733C43.3214 25.1952 42.9762 24.7171 42.6624 24.2071C42.3172 23.729 41.9407 23.2509 41.5327 22.8047C41.1875 22.3903 40.811 22.0078 40.403 21.6891V27.0121H37.0139V9.54497L40.403 9.00311V19.171Z" fill="var(--fill-0, #E0DDFE)"/>
</g>
</svg>
