<svg width="87" height="24" viewBox="0 0 87 24" fill="none" xmlns="http://www.w3.org/2000/svg">
<path d="M70.7703 22.5343V1.44336H78.6794C80.2996 1.44336 81.659 1.74544 82.7575 2.34961C83.8628 2.95378 84.697 3.78451 85.26 4.8418C85.8298 5.89222 86.1147 7.08683 86.1147 8.4256C86.1147 9.77811 85.8298 10.9796 85.26 12.03C84.6901 13.0804 83.8491 13.9077 82.7369 14.5119C81.6247 15.1092 80.255 15.4078 78.6279 15.4078H73.386V12.2669H78.1129C79.0604 12.2669 79.8362 12.1021 80.4404 11.7726C81.0445 11.443 81.4908 10.9899 81.7791 10.4132C82.0744 9.83647 82.222 9.17395 82.222 8.4256C82.222 7.67726 82.0744 7.01817 81.7791 6.44833C81.4908 5.87849 81.0411 5.43567 80.4301 5.11985C79.8259 4.79717 79.0467 4.63583 78.0924 4.63583H74.5909V22.5343H70.7703Z" fill="#E0DDFE"/>
<path d="M69.3016 8.5595H65.45C65.3401 7.92788 65.1376 7.36833 64.8424 6.88088C64.5472 6.38656 64.1799 5.96777 63.7405 5.62449C63.3011 5.28121 62.7999 5.02376 62.2369 4.85212C61.6808 4.67361 61.0801 4.58436 60.4347 4.58436C59.2882 4.58436 58.2721 4.87271 57.3864 5.44942C56.5008 6.01926 55.8074 6.85685 55.3062 7.9622C54.805 9.06069 54.5544 10.4029 54.5544 11.9888C54.5544 13.6022 54.805 14.9616 55.3062 16.067C55.8142 17.1654 56.5076 17.9962 57.3864 18.5592C58.2721 19.1153 59.2847 19.3933 60.4244 19.3933C61.0561 19.3933 61.6465 19.3109 62.1957 19.1462C62.7518 18.9745 63.2496 18.7239 63.689 18.3944C64.1352 18.0648 64.5094 17.6598 64.8115 17.1792C65.1205 16.6986 65.3333 16.1493 65.45 15.5314L69.3016 15.552C69.1574 16.5544 68.845 17.495 68.3644 18.3738C67.8907 19.2526 67.2694 20.0284 66.5004 20.7012C65.7315 21.3672 64.8321 21.8889 63.8023 22.2665C62.7724 22.6373 61.6293 22.8226 60.3729 22.8226C58.5192 22.8226 56.8646 22.3935 55.4092 21.5354C53.9537 20.6772 52.8071 19.4379 51.9695 17.8177C51.1319 16.1974 50.7131 14.2545 50.7131 11.9888C50.7131 9.71635 51.1354 7.7734 51.9798 6.16C52.8243 4.53974 53.9743 3.30051 55.4298 2.44232C56.8852 1.58412 58.533 1.15503 60.3729 1.15503C61.5469 1.15503 62.6386 1.3198 63.6478 1.64935C64.657 1.97889 65.5564 2.46291 66.3459 3.10141C67.1355 3.73304 67.7843 4.50884 68.2923 5.42882C68.8072 6.34194 69.1437 7.3855 69.3016 8.5595Z" fill="#E0DDFE"/>
<path d="M49.2888 1.44336V22.5343H45.499V4.61523H36.2717V22.5343H32.4819V1.44336H49.2888Z" fill="#E0DDFE"/>
<path d="M21.6678 0C22.3439 2.24831e-06 22.8919 0.554805 22.8919 1.23911V19.0261V21.962C22.8919 23.0659 21.5734 23.6186 20.8024 22.838L12.6713 14.6063C12.6578 14.5926 12.6446 14.5787 12.6319 14.5647C12.3118 14.2117 11.938 13.7901 11.4646 13.7901C10.9769 13.7901 10.5815 14.1903 10.5815 14.684V21.962C10.5815 23.0659 9.26304 23.6186 8.492 22.838L0.360914 14.6063C-0.410093 13.8257 0.135993 12.4912 1.2264 12.4911H9.35748C9.37067 12.4911 9.38382 12.4914 9.3969 12.4918H13.5013C13.513 12.4915 13.5249 12.4911 13.5368 12.4911H20.6138C21.13 12.4911 21.5484 12.062 21.5484 11.5394C21.5484 11.0564 21.1411 10.6639 20.8033 10.3228L12.6775 2.11622C12.6682 2.10687 12.6591 2.0974 12.6502 2.08789C12.3254 1.74017 11.9497 1.32476 11.477 1.32476C10.9824 1.32476 10.5815 1.73058 10.5815 2.23118V9.44565C10.5815 10.5488 9.26455 11.1019 8.49308 10.3228L0.367091 2.11622C-0.405364 1.33611 0.140378 3.5973e-05 1.2315 0H21.6678Z" fill="#E0DDFE"/>
</svg>
