<svg preserveAspectRatio="none" width="100%" height="100%" overflow="visible" style="display: block;" viewBox="0 0 84 34" fill="none" xmlns="http://www.w3.org/2000/svg">
<g id="Next.js_wordmark 2">
<path id="Vector" d="M55.8406 10.5271H70.4719V13.2598H64.6678V27.6363H61.7656V13.2598H55.8406V10.5271Z" fill="var(--fill-0, #E0DDFE)"/>
<path id="Vector_2" d="M31.7775 10.5271V13.2598H20.0495V17.6559H29.4812V20.3886H20.0495V24.9036H31.7775V27.6363H17.1474V13.2598H17.1462V10.5271H31.7775Z" fill="var(--fill-0, #E0DDFE)"/>
<path id="Vector_3" d="M39.0835 10.5271H35.2856L48.8889 27.6363H52.6979L45.8954 19.0876L52.687 10.5402L48.8889 10.5461L43.9939 16.698L39.0835 10.5271Z" fill="var(--fill-0, #E0DDFE)"/>
<path id="Vector_4" d="M42.9808 17.6797L41.0788 15.2867L35.2747 22.5807H39.0835L42.9808 17.6797Z" fill="var(--fill-0, #E0DDFE)"/>
<path id="Vector_5" fill-rule="evenodd" clip-rule="evenodd" d="M17.2492 27.6434L3.62758 10.5271H0V27.6363H2.90207V14.1842L13.6035 27.6434H17.2492Z" fill="var(--fill-0, #E0DDFE)"/>
<path id="Vector_6" d="M71.1244 27.4991C70.9118 27.4991 70.731 27.4246 70.5796 27.2756C70.4283 27.1266 70.3534 26.9462 70.3554 26.7325C70.3534 26.5247 70.4283 26.3462 70.5796 26.1972C70.731 26.0482 70.9118 25.9737 71.1244 25.9737C71.3288 25.9737 71.5077 26.0482 71.6591 26.1972C71.8126 26.3462 71.8891 26.5247 71.8912 26.7325C71.8891 26.8737 71.8537 27.0031 71.7829 27.1187C71.7102 27.2364 71.6179 27.3286 71.5017 27.3952C71.3877 27.4639 71.2619 27.4991 71.1244 27.4991Z" fill="var(--fill-0, #E0DDFE)"/>
<path id="Vector_7" d="M76.0775 20.2675H77.3635V25.2811C77.3616 25.7418 77.2631 26.1359 77.0705 26.4673C76.8759 26.7987 76.6064 27.0516 76.2604 27.23C75.9163 27.4065 75.5131 27.4967 75.055 27.4967C74.636 27.4967 74.2606 27.4202 73.9263 27.2712C73.592 27.1222 73.3266 26.8987 73.1319 26.6045C72.9351 26.3104 72.8388 25.9438 72.8388 25.5046H74.1269C74.1288 25.6968 74.1721 25.8634 74.2546 26.0026C74.3371 26.1418 74.4512 26.2477 74.5968 26.3222C74.7441 26.3967 74.9134 26.434 75.104 26.434C75.3106 26.434 75.4876 26.3908 75.631 26.3026C75.7745 26.2163 75.8847 26.0869 75.9615 25.9144C76.0361 25.7438 76.0756 25.532 76.0775 25.2811V20.2675Z" fill="var(--fill-0, #E0DDFE)"/>
<path id="Vector_8" d="M82.6549 22.3243C82.6236 22.0204 82.4858 21.7832 82.246 21.6145C82.004 21.4439 81.6915 21.3596 81.3079 21.3596C81.0386 21.3596 80.8067 21.4008 80.614 21.4812C80.4212 21.5636 80.2718 21.6733 80.1694 21.8126C80.0673 21.9518 80.0161 22.1106 80.0121 22.289C80.0121 22.438 80.0475 22.5674 80.1163 22.6753C80.1852 22.7851 80.2775 22.8772 80.3976 22.9517C80.5155 23.0282 80.6472 23.0909 80.7909 23.1419C80.9363 23.1929 81.0819 23.236 81.2273 23.2713L81.8978 23.438C82.1673 23.5007 82.4289 23.5851 82.6786 23.6929C82.9282 23.7988 83.1544 23.9341 83.3529 24.0968C83.5516 24.2595 83.7089 24.4556 83.8249 24.685C83.9409 24.9144 84 25.183 84 25.4928C84 25.9104 83.8938 26.2771 83.6793 26.5947C83.465 26.9104 83.1563 27.1575 82.7513 27.3359C82.3481 27.5124 81.8605 27.6025 81.2864 27.6025C80.7319 27.6025 80.2481 27.5163 79.8411 27.3437C79.4322 27.1732 79.1135 26.9222 78.8834 26.5928C78.6534 26.2634 78.5295 25.8614 78.5118 25.3889H79.7861C79.8038 25.6359 79.8825 25.8418 80.0161 26.0085C80.1517 26.1732 80.3287 26.2948 80.5451 26.3771C80.7634 26.4575 81.0071 26.4987 81.2766 26.4987C81.5578 26.4987 81.8055 26.4555 82.0198 26.3712C82.2321 26.2869 82.3993 26.1693 82.5193 26.0163C82.6412 25.8654 82.7022 25.6869 82.7041 25.483C82.7022 25.2968 82.647 25.1418 82.5408 25.0203C82.4327 24.8987 82.2833 24.7968 82.0925 24.7144C81.9 24.6321 81.6757 24.5576 81.42 24.4929L80.6061 24.285C80.0181 24.134 79.552 23.9047 79.2117 23.5968C78.8698 23.289 78.7005 22.8812 78.7005 22.3694C78.7005 21.9498 78.8146 21.5812 79.0448 21.2655C79.2727 20.9499 79.5855 20.7048 79.9808 20.5303C80.3779 20.3538 80.8263 20.2675 81.3256 20.2675C81.833 20.2675 82.2773 20.3538 82.6609 20.5303C83.0442 20.7048 83.3452 20.9479 83.5633 21.2577C83.7816 21.5675 83.8957 21.9224 83.9017 22.3243H82.6549Z" fill="var(--fill-0, #E0DDFE)"/>
</g>
</svg>
