<svg width="87" height="24" viewBox="0 3 87 24" fill="none" xmlns="http://www.w3.org/2000/svg">
<path d="M70.7703 25.9325V4.84155H78.6794C80.2996 4.84155 81.659 5.14364 82.7575 5.7478C83.8628 6.35197 84.697 7.1827 85.26 8.23999C85.8298 9.29042 86.1147 10.485 86.1147 11.8238C86.1147 13.1763 85.8298 14.3778 85.26 15.4282C84.6901 16.4786 83.8491 17.3059 82.7369 17.9101C81.6247 18.5074 80.255 18.806 78.6279 18.806H73.386V15.6651H78.1129C79.0604 15.6651 79.8362 15.5003 80.4404 15.1707C81.0445 14.8412 81.4908 14.3881 81.7791 13.8114C82.0744 13.2347 82.222 12.5721 82.222 11.8238C82.222 11.0755 82.0744 10.4164 81.7791 9.84653C81.4908 9.27669 81.0411 8.83386 80.4301 8.51804C79.8259 8.19536 79.0467 8.03403 78.0924 8.03403H74.5909V25.9325H70.7703Z" fill="#E0DDFE"/>
<path d="M69.3016 11.9577H65.45C65.3401 11.3261 65.1376 10.7665 64.8424 10.2791C64.5472 9.78476 64.1799 9.36596 63.7405 9.02268C63.3011 8.67941 62.7999 8.42195 62.2369 8.25031C61.6808 8.07181 61.0801 7.98256 60.4347 7.98256C59.2882 7.98256 58.2721 8.27091 57.3864 8.84761C56.5008 9.41745 55.8074 10.255 55.3062 11.3604C54.805 12.4589 54.5544 13.8011 54.5544 15.387C54.5544 17.0004 54.805 18.3598 55.3062 19.4652C55.8142 20.5636 56.5076 21.3944 57.3864 21.9573C58.2721 22.5135 59.2847 22.7915 60.4244 22.7915C61.0561 22.7915 61.6465 22.7091 62.1957 22.5443C62.7518 22.3727 63.2496 22.1221 63.689 21.7926C64.1352 21.463 64.5094 21.058 64.8115 20.5774C65.1205 20.0968 65.3333 19.5475 65.45 18.9296L69.3016 18.9502C69.1574 19.9526 68.845 20.8932 68.3644 21.772C67.8907 22.6508 67.2694 23.4266 66.5004 24.0994C65.7315 24.7653 64.8321 25.2871 63.8023 25.6647C62.7724 26.0355 61.6293 26.2208 60.3729 26.2208C58.5192 26.2208 56.8646 25.7917 55.4092 24.9336C53.9537 24.0754 52.8071 22.8361 51.9695 21.2159C51.1319 19.5956 50.7131 17.6527 50.7131 15.387C50.7131 13.1145 51.1354 11.1716 51.9798 9.5582C52.8243 7.93793 53.9743 6.6987 55.4298 5.84051C56.8852 4.98232 58.533 4.55322 60.3729 4.55322C61.5469 4.55322 62.6386 4.71799 63.6478 5.04754C64.657 5.37709 65.5564 5.86111 66.3459 6.4996C67.1355 7.13123 67.7843 7.90703 68.2923 8.82702C68.8072 9.74013 69.1437 10.7837 69.3016 11.9577Z" fill="#E0DDFE"/>
<path d="M49.2888 4.84155V25.9325H45.499V8.01343H36.2717V25.9325H32.4819V4.84155H49.2888Z" fill="#E0DDFE"/>
<path d="M21.6678 3.39819C22.3439 3.3982 22.8919 3.953 22.8919 4.6373V22.4243V25.3602C22.8919 26.4641 21.5734 27.0168 20.8024 26.2361L12.6713 18.0044C12.6578 17.9908 12.6446 17.9769 12.6319 17.9629C12.3118 17.6098 11.938 17.1883 11.4646 17.1883C10.9769 17.1883 10.5815 17.5885 10.5815 18.0822V25.3602C10.5815 26.4641 9.26304 27.0168 8.492 26.2361L0.360914 18.0044C-0.410093 17.2239 0.135993 15.8893 1.2264 15.8893H9.35748C9.37067 15.8893 9.38382 15.8896 9.3969 15.89H13.5013C13.513 15.8897 13.5249 15.8893 13.5368 15.8893H20.6138C21.13 15.8893 21.5484 15.4602 21.5484 14.9376C21.5484 14.4546 21.1411 14.0621 20.8033 13.721L12.6775 5.51442C12.6682 5.50506 12.6591 5.4956 12.6502 5.48609C12.3254 5.13836 11.9497 4.72296 11.477 4.72296C10.9824 4.72296 10.5815 5.12878 10.5815 5.62937V12.8438C10.5815 13.947 9.26455 14.5001 8.49308 13.721L0.367091 5.51442C-0.405364 4.7343 0.140378 3.39823 1.2315 3.39819H21.6678Z" fill="#E0DDFE"/>
</svg>
