<svg preserveAspectRatio="xMidYMid meet" width="86" height="24" overflow="visible" style="display: block;" viewBox="0 0 86.1147 23.2035" fill="none" xmlns="http://www.w3.org/2000/svg">
<g id="PSR">
<g id="&#208;&#159;&#208;&#161;&#208;&#160;">
<path id="Vector" d="M70.7703 22.5344V1.44353H78.6794C80.2996 1.44353 81.659 1.74561 82.7575 2.34978C83.8628 2.95395 84.697 3.78468 85.26 4.84197C85.8298 5.89239 86.1147 7.087 86.1147 8.42578C86.1147 9.77828 85.8298 10.9798 85.26 12.0302C84.6901 13.0806 83.8491 13.9079 82.7369 14.5121C81.6247 15.1094 80.255 15.408 78.6279 15.408H73.386V12.267H78.1129C79.0604 12.267 79.8362 12.1023 80.4404 11.7727C81.0445 11.4432 81.4908 10.9901 81.7791 10.4133C82.0744 9.83664 82.222 9.17412 82.222 8.42578C82.222 7.67743 82.0744 7.01834 81.7791 6.4485C81.4908 5.87866 81.0411 5.43584 80.4301 5.12002C79.8259 4.79734 79.0467 4.636 78.0924 4.636H74.5909V22.5344H70.7703Z" fill="var(--fill-0, #E0DDFE)"/>
<path id="Vector_2" d="M69.3016 8.55968H65.45C65.3401 7.92805 65.1376 7.3685 64.8424 6.88105C64.5472 6.38673 64.1799 5.96794 63.7405 5.62466C63.3011 5.28138 62.7999 5.02393 62.2369 4.85229C61.6808 4.67378 61.0801 4.58453 60.4347 4.58453C59.2882 4.58453 58.2721 4.87289 57.3864 5.44959C56.5008 6.01943 55.8074 6.85702 55.3062 7.96237C54.805 9.06086 54.5544 10.4031 54.5544 11.989C54.5544 13.6024 54.805 14.9618 55.3062 16.0671C55.8142 17.1656 56.5076 17.9963 57.3864 18.5593C58.2721 19.1154 59.2847 19.3935 60.4244 19.3935C61.0561 19.3935 61.6465 19.3111 62.1957 19.1463C62.7518 18.9747 63.2496 18.7241 63.689 18.3945C64.1352 18.065 64.5094 17.6599 64.8115 17.1793C65.1205 16.6988 65.3333 16.1495 65.45 15.5316L69.3016 15.5522C69.1574 16.5546 68.845 17.4952 68.3644 18.374C67.8907 19.2527 67.2694 20.0285 66.5004 20.7014C65.7315 21.3673 64.8321 21.8891 63.8023 22.2667C62.7724 22.6374 61.6293 22.8228 60.3729 22.8228C58.5192 22.8228 56.8646 22.3937 55.4092 21.5355C53.9537 20.6773 52.8071 19.4381 51.9695 17.8178C51.1319 16.1976 50.7131 14.2546 50.7131 11.989C50.7131 9.71652 51.1354 7.77357 51.9798 6.16017C52.8243 4.53991 53.9743 3.30068 55.4298 2.44249C56.8852 1.58429 58.533 1.1552 60.3729 1.1552C61.5469 1.1552 62.6386 1.31997 63.6478 1.64952C64.657 1.97906 65.5564 2.46308 66.3459 3.10158C67.1355 3.73321 67.7843 4.50901 68.2923 5.42899C68.8072 6.34211 69.1437 7.38567 69.3016 8.55968Z" fill="var(--fill-0, #E0DDFE)"/>
<path id="Vector_3" d="M49.2888 1.44353V22.5344H45.499V4.61541H36.2717V22.5344H32.4819V1.44353H49.2888Z" fill="var(--fill-0, #E0DDFE)"/>
</g>
<path id="Vector_4" d="M21.6678 0C22.3439 2.24831e-06 22.8919 0.554805 22.8919 1.23911V19.0261V21.962C22.8919 23.0659 21.5734 23.6186 20.8024 22.838L12.6713 14.6063C12.6578 14.5926 12.6446 14.5787 12.6319 14.5647C12.3118 14.2117 11.938 13.7901 11.4646 13.7901C10.9769 13.7901 10.5815 14.1903 10.5815 14.684V21.962C10.5815 23.0659 9.26304 23.6186 8.492 22.838L0.360914 14.6063C-0.410093 13.8257 0.135993 12.4912 1.2264 12.4911H9.35748C9.37067 12.4911 9.38382 12.4914 9.3969 12.4918H13.5013C13.513 12.4915 13.5249 12.4911 13.5368 12.4911H20.6138C21.13 12.4911 21.5484 12.062 21.5484 11.5394C21.5484 11.0564 21.1411 10.6639 20.8033 10.3228L12.6775 2.11622C12.6682 2.10687 12.6591 2.0974 12.6502 2.08789C12.3254 1.74017 11.9497 1.32476 11.477 1.32476C10.9824 1.32476 10.5815 1.73058 10.5815 2.23118V9.44566C10.5815 10.5488 9.26455 11.1019 8.49308 10.3228L0.367091 2.11622C-0.405364 1.33611 0.140378 3.5973e-05 1.2315 0H21.6678Z" fill="var(--fill-0, #E0DDFE)"/>
</g>
</svg>
