<svg width="92" height="24" viewBox="0 3 92 24" fill="none" xmlns="http://www.w3.org/2000/svg">
<path d="M74.1147 26.6396V3.30957H82.8603C84.6519 3.30957 86.155 3.64372 87.3697 4.31203C88.5919 4.98034 89.5143 5.89926 90.1368 7.0688C90.7669 8.23074 91.082 9.55217 91.082 11.0331C91.082 12.5292 90.7669 13.8582 90.1368 15.0201C89.5067 16.1821 88.5768 17.0972 87.3469 17.7655C86.1171 18.4262 84.6025 18.7566 82.8033 18.7566H77.0071V15.2821H82.234C83.2816 15.2821 84.1394 15.0999 84.8075 14.7353C85.4756 14.3708 85.969 13.8696 86.2879 13.2317C86.6143 12.5937 86.7775 11.8609 86.7775 11.0331C86.7775 10.2053 86.6143 9.47622 86.2879 8.84589C85.969 8.21555 85.4718 7.72572 84.7961 7.37637C84.1281 7.01944 83.2664 6.84097 82.2112 6.84097H78.3395V26.6396H74.1147Z" fill="#E0DDFE"/>
<path d="M72.3238 11.2821H67.9292C67.8039 10.602 67.5728 9.99957 67.236 9.47472C66.8991 8.94248 66.48 8.49155 65.9787 8.12194C65.4774 7.75232 64.9055 7.47511 64.2632 7.29031C63.6287 7.09811 62.9432 7.00201 62.2069 7.00201C60.8987 7.00201 59.7394 7.31248 58.7288 7.93343C57.7183 8.54699 56.9271 9.44885 56.3553 10.639C55.7835 11.8218 55.4975 13.267 55.4975 14.9746C55.4975 16.7118 55.7835 18.1754 56.3553 19.3656C56.935 20.5483 57.7262 21.4428 58.7288 22.049C59.7394 22.6477 60.8948 22.9471 62.1951 22.9471C62.9158 22.9471 63.5895 22.8584 64.2162 22.681C64.8507 22.4962 65.4186 22.2264 65.92 21.8716C66.4291 21.5167 66.8561 21.0806 67.2007 20.5631C67.5532 20.0457 67.7961 19.4543 67.9292 18.789L72.3238 18.8112C72.1593 19.8904 71.8029 20.9032 71.2545 21.8494C70.714 22.7956 70.0051 23.6309 69.1278 24.3554C68.2504 25.0724 67.2242 25.6342 66.0492 26.0408C64.8742 26.44 63.5699 26.6396 62.1364 26.6396C60.0214 26.6396 58.1335 26.1776 56.4728 25.2535C54.8121 24.3295 53.5039 22.9952 52.5482 21.2506C51.5926 19.506 51.1147 17.414 51.1147 14.9746C51.1147 12.5277 51.5965 10.4357 52.56 8.69853C53.5235 6.95396 54.8356 5.61965 56.4963 4.69562C58.157 3.77159 60.037 3.30957 62.1364 3.30957C63.4759 3.30957 64.7214 3.48698 65.873 3.84181C67.0245 4.19664 68.0507 4.7178 68.9515 5.40528C69.8524 6.08537 70.5926 6.92069 71.1723 7.91126C71.7598 8.89443 72.1436 10.0181 72.3238 11.2821Z" fill="#E0DDFE"/>
<path d="M49.2029 3.30957V26.6396H44.8987V6.81818H34.4189V26.6396H30.1147V3.30957H49.2029Z" fill="#E0DDFE"/>
<path d="M21.6678 3.48682C22.3439 3.48682 22.8919 4.04162 22.8919 4.72592V22.5129V25.4488C22.8919 26.5528 21.5734 27.1054 20.8024 26.3248L12.6713 18.0931C12.6578 18.0794 12.6446 18.0655 12.6319 18.0515C12.3118 17.6985 11.938 17.2769 11.4646 17.2769C10.9769 17.2769 10.5815 17.6771 10.5815 18.1708V25.4488C10.5815 26.5528 9.26304 27.1054 8.492 26.3248L0.360914 18.0931C-0.410093 17.3125 0.135993 15.978 1.2264 15.9779H9.35748C9.37067 15.9779 9.38382 15.9782 9.3969 15.9786H13.5013C13.513 15.9783 13.5249 15.9779 13.5368 15.9779H20.6138C21.13 15.9779 21.5484 15.5488 21.5484 15.0263C21.5484 14.5433 21.1411 14.1507 20.8033 13.8096L12.6775 5.60304C12.6682 5.59369 12.6591 5.58422 12.6502 5.57471C12.3254 5.22699 11.9497 4.81158 11.477 4.81158C10.9824 4.81158 10.5815 5.2174 10.5815 5.71799V12.9325C10.5815 14.0356 9.26455 14.5887 8.49308 13.8096L0.367091 5.60304C-0.405364 4.82293 0.140378 3.48685 1.2315 3.48682H21.6678Z" fill="#E0DDFE"/>
</svg>
