<svg width="90" height="30" viewBox="0 0 90 30" fill="none" xmlns="http://www.w3.org/2000/svg">
<path d="M71.4969 26.647V3.31909H80.2449C82.037 3.31909 83.5405 3.63044 84.7555 4.25312C85.9781 4.87581 86.9008 5.74909 87.5234 6.87296C88.1537 7.98924 88.4689 9.29156 88.4689 10.7799C88.4689 12.2759 88.1499 13.5744 87.5121 14.6755C86.8818 15.769 85.9515 16.6157 84.7214 17.2156C83.4912 17.8079 81.98 18.1041 80.1879 18.1041H73.9572V14.5958H79.6184C80.6663 14.5958 81.5244 14.4515 82.1926 14.1629C82.8609 13.8668 83.3545 13.4377 83.6734 12.8758C84 12.3063 84.1632 11.6077 84.1632 10.7799C84.1632 9.95222 84 9.246 83.6734 8.66128C83.3469 8.06897 82.8495 7.62094 82.1813 7.31719C81.513 7.00585 80.6511 6.85018 79.5956 6.85018H75.7228V26.647H71.4969ZM83.5481 16.0766L89.3232 26.647H84.6075L78.9349 16.0766H83.5481Z" fill="#E0DDFE"/>
<path d="M64.948 9.73185C64.8417 8.73707 64.3936 7.96251 63.6039 7.40816C62.8217 6.85382 61.8042 6.57665 60.5512 6.57665C59.6703 6.57665 58.9148 6.70954 58.2845 6.97532C57.6542 7.2411 57.172 7.6018 56.8379 8.05743C56.5037 8.51305 56.3329 9.03322 56.3253 9.61794C56.3253 10.1039 56.4354 10.5254 56.6556 10.8823C56.8834 11.2392 57.191 11.543 57.5783 11.7935C57.9655 12.0365 58.3946 12.2416 58.8654 12.4086C59.3362 12.5757 59.8108 12.7162 60.2892 12.8301L62.4762 13.3768C63.3571 13.5819 64.2038 13.859 65.0163 14.2084C65.8364 14.5577 66.5692 14.9981 67.2147 15.5297C67.8678 16.0612 68.3841 16.7029 68.7638 17.4547C69.1435 18.2065 69.3334 19.0873 69.3334 20.0973C69.3334 21.4642 68.9841 22.6678 68.2854 23.7081C67.5868 24.7409 66.5768 25.5496 65.2555 26.1343C63.9418 26.7114 62.3509 27 60.4829 27C58.668 27 57.0923 26.719 55.7558 26.1571C54.4269 25.5952 53.3865 24.775 52.6347 23.6967C51.8906 22.6184 51.4881 21.3047 51.4273 19.7556H55.5849C55.6457 20.5681 55.8962 21.2439 56.3367 21.7831C56.7771 22.3223 57.3505 22.7247 58.0567 22.9905C58.7705 23.2563 59.5678 23.3892 60.4487 23.3892C61.3675 23.3892 62.1725 23.2525 62.8635 22.9791C63.5621 22.6981 64.1089 22.3109 64.5037 21.8173C64.8986 21.3161 65.0999 20.7314 65.1074 20.0631C65.0999 19.4556 64.9214 18.9544 64.5721 18.5596C64.2228 18.1571 63.733 17.823 63.1027 17.5572C62.48 17.2838 61.751 17.0408 60.9157 16.8282L58.2617 16.1448C56.3405 15.6512 54.8217 14.9032 53.7055 13.9008C52.5968 12.8908 52.0424 11.5505 52.0424 9.87992C52.0424 8.50546 52.4145 7.30185 53.1587 6.2691C53.9105 5.23636 54.9318 4.43522 56.2228 3.86568C57.5137 3.28856 58.9755 3 60.6082 3C62.2636 3 63.714 3.28856 64.9594 3.86568C66.2123 4.43522 67.1957 5.22876 67.9095 6.24632C68.6233 7.25629 68.9916 8.41813 69.0144 9.73185H64.948Z" fill="#E0DDFE"/>
<path d="M33.2312 26.647V3.31909H41.9792C43.7713 3.31909 45.2749 3.65322 46.4899 4.32146C47.7125 4.98971 48.6351 5.90856 49.2578 7.07799C49.8881 8.23983 50.2032 9.56114 50.2032 11.0419C50.2032 12.5379 49.8881 13.8668 49.2578 15.0286C48.6275 16.1905 47.6973 17.1055 46.4671 17.7738C45.2369 18.4344 43.722 18.7647 41.9223 18.7647H36.1245V15.2906H41.3527C42.4007 15.2906 43.2588 15.1084 43.927 14.7439C44.5953 14.3794 45.0889 13.8782 45.4078 13.2403C45.7343 12.6024 45.8976 11.8696 45.8976 11.0419C45.8976 10.2142 45.7343 9.4852 45.4078 8.85492C45.0889 8.22464 44.5915 7.73485 43.9156 7.38554C43.2474 7.02863 42.3855 6.85018 41.33 6.85018H37.4572V26.647H33.2312Z" fill="#E0DDFE"/>
<path d="M21.6678 3.46558C22.3439 3.46558 22.8919 4.02038 22.8919 4.70468V22.4917V25.4276C22.8919 26.5315 21.5734 27.0841 20.8024 26.3035L12.6713 18.0718C12.6578 18.0581 12.6446 18.0443 12.6319 18.0303C12.3118 17.6772 11.938 17.2557 11.4646 17.2557C10.9769 17.2557 10.5815 17.6559 10.5815 18.1496V25.4276C10.5815 26.5315 9.26304 27.0841 8.492 26.3035L0.360914 18.0718C-0.410093 17.2913 0.135993 15.9567 1.2264 15.9567H9.35748C9.37067 15.9567 9.38382 15.957 9.3969 15.9574H13.5013C13.513 15.9571 13.5249 15.9567 13.5368 15.9567H20.6138C21.13 15.9567 21.5484 15.5276 21.5484 15.005C21.5484 14.522 21.1411 14.1295 20.8033 13.7884L12.6775 5.5818C12.6682 5.57245 12.6591 5.56298 12.6502 5.55347C12.3254 5.20575 11.9497 4.79034 11.477 4.79034C10.9824 4.79034 10.5815 5.19616 10.5815 5.69675V12.9112C10.5815 14.0144 9.26455 14.5675 8.49308 13.7884L0.367091 5.5818C-0.405364 4.80169 0.140378 3.46561 1.2315 3.46558H21.6678Z" fill="#E0DDFE"/>
</svg>
