<svg preserveAspectRatio="none" width="100%" height="100%" overflow="visible" style="display: block;" viewBox="0 0 128 34" fill="none" xmlns="http://www.w3.org/2000/svg">
<g id="Python_logo_and_wordmark 2">
<g id="Group 1597885377">
<path id="Vector" d="M49.2991 19.045C49.2991 15.3426 48.2405 13.4405 46.1222 13.3362C45.2797 13.2966 44.4569 13.4304 43.6568 13.7403C43.0181 13.9683 42.5882 14.1939 42.3621 14.4218V23.2608C43.7165 24.1086 44.9195 24.5024 45.9674 24.4407C48.1867 24.2944 49.2973 22.4974 49.2973 19.0447L49.2991 19.045ZM51.91 19.1986C51.91 21.0798 51.4677 22.6417 50.5781 23.8826C49.5865 25.288 48.2122 26.0117 46.4552 26.0514C45.1306 26.0935 43.7652 25.6796 42.3628 24.812V32.8449L40.0913 32.0368V14.2062C40.4641 13.7503 40.9437 13.3584 41.5253 13.0263C42.8771 12.2406 44.5212 11.8365 46.4539 11.8167L46.4862 11.8489C48.2532 11.8266 49.6147 12.5502 50.5709 14.0177C51.463 15.3637 51.9105 17.0895 51.9105 19.1975L51.91 19.1986Z" fill="var(--fill-0, #E0DDFE)"/>
<path id="Vector_2" d="M65.7959 24.4715C65.7959 26.9948 65.5424 28.741 65.0353 29.7149C64.5258 30.6865 63.5564 31.4623 62.126 32.0398C60.9654 32.4957 59.7104 32.7437 58.3626 32.7859L57.9873 31.3583C59.3568 31.1724 60.3211 30.9866 60.8813 30.8007C61.9822 30.4289 62.7377 29.8588 63.1528 29.0954C63.4858 28.4732 63.6497 27.2862 63.6497 25.5278V24.9379C62.0965 25.6417 60.4677 25.9914 58.767 25.9914C57.6487 25.9914 56.662 25.642 55.8119 24.9379C54.8575 24.1719 54.3805 23.2003 54.3805 22.0237V12.5948L56.652 11.819V21.3089C56.652 22.3228 56.9802 23.1034 57.6362 23.6512C58.2923 24.1989 59.1423 24.4616 60.1837 24.4417C61.225 24.4194 62.3407 24.0179 63.5263 23.2321V12.1605H65.7979V24.4705L65.7959 24.4715Z" fill="var(--fill-0, #E0DDFE)"/>
<path id="Vector_3" d="M74.6689 25.9285C74.3982 25.9508 74.1496 25.9607 73.9209 25.9607C72.636 25.9607 71.6345 25.6558 70.9198 25.0438C70.2067 24.4315 69.8487 23.5865 69.8487 22.5083V13.5854H68.2928V12.1601H69.8487V8.37635L72.1177 7.57077V12.1606H74.67V13.5859H72.1177V22.4478C72.1177 23.2979 72.3463 23.9003 72.8036 24.2522C73.1962 24.5421 73.8201 24.7081 74.67 24.7503V25.9302L74.6689 25.9285Z" fill="var(--fill-0, #E0DDFE)"/>
<path id="Vector_4" d="M88.412 25.7428H86.1404V16.9979C86.1404 16.1082 85.9316 15.3423 85.5165 14.7027C85.0369 13.9791 84.3709 13.6172 83.516 13.6172C82.4747 13.6172 81.1723 14.1649 79.6098 15.2604V25.7421H77.3382V4.83976L79.6098 4.12598V13.6464C81.0611 12.5929 82.6465 12.065 84.3701 12.065C85.5731 12.065 86.5471 12.4691 87.2921 13.2747C88.0402 14.0803 88.413 15.0839 88.413 16.2829V25.7398L88.412 25.7428Z" fill="var(--fill-0, #E0DDFE)"/>
<path id="Vector_5" d="M100.498 18.6889C100.498 17.2662 100.227 16.0927 99.6874 15.162C99.0461 14.0294 98.0497 13.4321 96.7016 13.37C94.2113 13.5138 92.9688 15.2934 92.9688 18.7049C92.9688 20.2688 93.2274 21.5758 93.7493 22.6235C94.4153 23.9595 95.4145 24.6186 96.7478 24.5965C99.248 24.5767 100.498 22.6087 100.498 18.6894L100.498 18.6889ZM102.985 18.7038C102.985 20.7287 102.466 22.4138 101.43 23.759C100.289 25.2659 98.7141 26.0219 96.7024 26.0219C94.7093 26.0219 93.1557 25.2659 92.0338 23.759C91.0173 22.4131 90.5104 20.7279 90.5104 18.7038C90.5104 16.8002 91.0596 15.1997 92.158 13.8952C93.3187 12.5122 94.8454 11.8182 96.7297 11.8182C98.616 11.8182 100.151 12.5122 101.334 13.8952C102.433 15.199 102.982 16.7992 102.982 18.7038H102.985Z" fill="var(--fill-0, #E0DDFE)"/>
<path id="Vector_6" d="M116 25.7427H113.728V16.502C113.728 15.4881 113.423 14.6976 112.811 14.1275C112.2 13.5599 111.385 13.2848 110.368 13.3071C109.29 13.327 108.263 13.6789 107.288 14.3606V25.7425H105.017V14.0809C106.324 13.1317 107.527 12.512 108.625 12.2221C109.661 11.952 110.575 11.818 111.363 11.818C111.902 11.818 112.409 11.8701 112.887 11.9742C113.779 12.1799 114.504 12.5616 115.063 13.1218C115.687 13.7415 115.998 14.485 115.998 15.3549V25.7425L116 25.7427Z" fill="var(--fill-0, #E0DDFE)"/>
<path id="Vector_7" d="M17.6596 4.92398C16.4908 4.92939 15.3748 5.02879 14.3934 5.20216C11.4995 5.71201 10.9742 6.77874 10.9742 8.74691V11.3457H17.81V12.2118H10.9742H8.40918C6.42244 12.2118 4.68148 13.4029 4.13839 15.6676C3.51065 18.2638 3.48286 19.8862 4.13839 22.5969C4.62437 24.6154 5.785 26.0526 7.77175 26.0526H10.1223V22.9376C10.1223 20.6872 12.0747 18.7012 14.3931 18.7012H21.2213C23.1221 18.7012 24.6405 17.1404 24.6405 15.2378V8.74589C24.6405 6.89825 23.0775 5.51138 21.2213 5.20115C20.0469 5.00619 18.8284 4.91762 17.6593 4.92296L17.6596 4.92398ZM13.9625 7.01395C14.6688 7.01395 15.2453 7.59856 15.2453 8.31717C15.2453 9.03324 14.6685 9.6125 13.9625 9.6125C13.2539 9.6125 12.6797 9.03349 12.6797 8.31717C12.6797 7.59856 13.2539 7.01395 13.9625 7.01395Z" fill="var(--fill-0, #E0DDFE)"/>
<path id="Vector_8" d="M25.4924 12.2097V15.2382C25.4924 17.5855 23.4969 19.5611 21.2216 19.5611H14.3934C12.5229 19.5611 10.9742 21.1575 10.9742 23.0244V29.5164C10.9742 31.364 12.5854 32.4508 14.3934 32.9797C16.5573 33.6144 18.6336 33.7291 21.2216 32.9797C22.9426 32.4829 24.6407 31.4825 24.6407 29.5164V26.9176H17.8126V26.0515H24.6407H28.0599C30.0467 26.0515 30.7881 24.6694 31.4791 22.5957C32.1928 20.46 32.1624 18.4051 31.4791 15.6664C30.988 13.6939 30.0502 12.2107 28.0599 12.2107H25.4949L25.4924 12.2097ZM21.6525 28.6518C22.361 28.6518 22.9352 29.2308 22.9352 29.9471C22.9352 30.6657 22.361 31.2503 21.6525 31.2503C20.9462 31.2503 20.3697 30.6657 20.3697 29.9471C20.3697 29.231 20.9464 28.6518 21.6525 28.6518Z" fill="var(--fill-0, #E0DDFE)"/>
</g>
<path id="Vector_9" d="M119.901 15.6621H120.281V13.2836H121.182V13H119V13.2836H119.901V15.6621ZM121.519 15.6621H121.844V13.4897L122.549 15.6619H122.911L123.646 13.497V15.6621H124V13.001H123.531L122.728 15.2817L122.043 13.001H121.519V15.6621Z" fill="var(--fill-0, #E0DDFE)"/>
</g>
</svg>
