<svg preserveAspectRatio="none" width="100%" height="100%" overflow="visible" style="display: block;" viewBox="0 0 32 32" fill="none" xmlns="http://www.w3.org/2000/svg">
<path id="Vector" fill-rule="evenodd" clip-rule="evenodd" d="M16.3455 31.9111C13.2016 31.9111 11.7409 31.4487 9.20924 29.5993C7.59792 31.6804 2.52566 33.2992 2.30231 30.524C2.30231 28.4449 1.83766 26.6932 1.32515 24.7651C0.697972 22.4029 0 19.7748 0 15.9561C0 6.84982 7.44038 0 16.2627 0C25.0831 0 32 7.18325 32 16.0447C32 24.9051 24.8627 31.9111 16.3455 31.9111ZM16.4731 7.87327C12.1806 7.64762 8.83133 10.6374 8.09248 15.3174C7.48026 19.1936 8.56511 23.916 9.49241 24.1537C9.93014 24.2655 11.0509 23.3559 11.7409 22.6618C12.8776 23.4012 14.1808 23.9744 15.6296 24.0499C20.0368 24.2816 23.9414 20.8194 24.1727 16.3953C24.4041 11.9711 20.8803 8.10495 16.4731 7.87327Z" fill="var(--fill-0, #E0DDFE)"/>
</svg>
