<svg preserveAspectRatio="none" width="100%" height="100%" overflow="visible" style="display: block;" viewBox="0 0 22.3582 22.3591" fill="none" xmlns="http://www.w3.org/2000/svg">
<path id="Vector" d="M8.475 0.120448C8.37452 0.119509 8.27403 0.121387 8.17261 0.125144C4.93082 0.257561 2.3961 3.01015 2.53025 6.25291C2.61571 8.33966 3.78775 10.1316 5.47536 11.1091C2.35282 12.298 0.125112 15.3219 0.121265 18.8587L0.120326 18.8597C0.121265 19.2578 0.443399 19.58 0.841579 19.58C1.23882 19.58 1.56189 19.2579 1.56189 18.8597C1.56565 15.0647 4.62722 12.0097 8.41932 12.0126C9.85433 12.0135 11.1786 12.4539 12.2783 13.2072H12.2773C12.4351 13.3152 12.6295 13.3565 12.8173 13.3217C13.0061 13.287 13.1723 13.178 13.2803 13.0203C13.3883 12.8625 13.4296 12.6681 13.394 12.4803C13.3592 12.2924 13.2503 12.1262 13.0925 12.0182C12.5562 11.651 11.974 11.3458 11.357 11.111C13.1902 10.047 14.3932 8.0279 14.2992 5.76918C14.1696 2.62884 11.5832 0.151341 8.47461 0.120327L8.475 0.120448ZM8.46092 1.56202C10.821 1.58362 12.7593 3.44121 12.8579 5.8275C12.9593 8.28986 11.0613 10.3522 8.59796 10.4536C6.1356 10.555 4.07137 8.65705 3.97088 6.19366C3.86945 3.73034 5.76839 1.66708 8.23084 1.56562C8.30785 1.5628 8.38391 1.56108 8.46092 1.56202ZM20.0743 12.8626C19.8836 12.8635 19.6996 12.9396 19.5643 13.0748C19.4291 13.2101 19.354 13.3941 19.354 13.5848V20.7973H17.9105V17.1911C17.9115 16.7929 17.5884 16.4698 17.1902 16.4689C16.9986 16.4689 16.8155 16.5449 16.6793 16.6802C16.5441 16.8163 16.468 16.9995 16.468 17.1911V20.7973H15.0255V14.7869C15.0246 14.3887 14.7024 14.0666 14.3043 14.0666C13.907 14.0666 13.5849 14.3896 13.5839 14.7869V20.7973H12.1405V17.1665H12.1414C12.1405 16.7684 11.8174 16.4453 11.4193 16.4462C11.0211 16.4462 10.6989 16.7683 10.698 17.1665V20.7973H9.97769C9.78704 20.7973 9.60297 20.8734 9.46774 21.0086C9.3325 21.1439 9.25549 21.327 9.25549 21.5186C9.25643 21.7102 9.3325 21.8933 9.46774 22.0285C9.60297 22.1638 9.78704 22.2389 9.97769 22.2389H21.5168C21.9149 22.2389 22.2371 21.9158 22.238 21.5186C22.238 21.1204 21.9149 20.7983 21.5168 20.7973H20.7965V13.5848C20.7974 13.3932 20.7213 13.2101 20.5851 13.0739C20.4499 12.9387 20.2659 12.8626 20.0743 12.8626Z" fill="var(--fill-0, #E0DDFE)" stroke="var(--stroke-0, #E0DDFE)" stroke-width="0.240418"/>
</svg>
